<?xml version="1.0" encoding="utf-8"?>
<!-- Generator: Adobe Illustrator 16.0.0, SVG Export Plug-In . SVG Version: 6.00 Build 0)  -->
<!DOCTYPE svg PUBLIC "-//W3C//DTD SVG 1.1//EN" "http://www.w3.org/Graphics/SVG/1.1/DTD/svg11.dtd">
<svg version="1.1" id="Layer_1" xmlns="http://www.w3.org/2000/svg" xmlns:xlink="http://www.w3.org/1999/xlink" x="0px" y="0px"
	 width="3774.161px" height="926.42px" viewBox="-384.839 -128.58 3774.161 926.42"
	 enable-background="new -384.839 -128.58 3774.161 926.42" xml:space="preserve">
<g>
	<path fill="#FEFEFE" d="M1807.208,589.534c-0.521,17.328-2.144,34.08-11.735,49.576c-10.529,17.012-24.775,29.316-41.708,39.193
		c-19.666,11.473-40.791,17.303-63.56,18.148c-10.833,0.406-21.591,3.246-32.413,3.455c-12.913,0.25-22.894-7.793-33.397-14.221
		c-12.954-7.926-22.605-18.824-29.261-32.111c-9.128-18.23-18.688-36.453-25.292-55.633c-2.498-7.248,1.59-17.57,4.63-25.768
		c8.373-22.578,21.684-41.916,42.73-54.498c6.735-4.025,14.951-5.729,22.643-7.965c11.333-3.295,22.674-6.859,34.261-8.896
		c9.014-1.584,18.688-2.613,27.567-1.045c15.33,2.705,31.147,5.74,45.07,12.252c9.646,4.512,16.729,14.832,24.463,23.023
		c10.214,10.818,20.563,21.619,29.61,33.381c4.336,5.635,3.252,10.832,6.022,17.67
		C1806.109,586.362,1807.938,589.268,1807.208,589.534z M1685.346,504.094c-0.136,0.424-2.354,0.516-2.488,0.938
		c-2.707,0.422-3.397,0.92-6.021,1.643c-10.736,2.955-21.333,6.457-32.152,9.047c-13.417,3.213-27.011,6.031-36.695,16.848
		c-5.968,6.662-11.107,14.076-16.473,21.262c-9.32,12.477-15.037,26.652-13.102,42.086c1.113,8.879,5.92,17.51,10.056,25.754
		c10.168,20.27,19.287,41.406,39.224,54.734c15.638,10.455,31.582,19.221,51.497,12.676c4.604-1.514,9.637-2.43,14.472-2.43
		c18.569,0.004,36.05-4.945,51.939-13.664c28.494-15.635,50.911-36.514,53.285-71.938c0.753-11.25,3.73-22.535-5.729-32.166
		c-10.534-10.73-20.264-22.25-30.767-33.014c-6.784-6.951-13.289-16.191-21.74-19.08
		C1722.854,510.704,1703.854,508.118,1685.346,504.094z"/>
	<path fill="#FEFEFE" d="M1558.625,190.138c1.25,28.995,1.818,53.296,4.451,82.164c2.115,23.201,7.759,46.059,10.728,69.211
		c2.029,15.818,1.626,31.935,3.244,47.823c2.468,24.254,6.134,48.389,8.488,72.653c0.981,10.121,0.633,20.537-0.688,30.613
		c-0.405,3.1-5.712,6.154-9.387,8.027c-2.56,1.303-6.201,0.924-9.296,0.631c-5.14-0.486-8.99-0.695-12.944-6.908
		c-14.296-22.467-30.559-43.684-46.155-65.316c-14.432-20.016-29.699-39.485-43.098-60.167c-5.688-8.781-7.122-20.219-11.236-30.14
		c-6.653-16.04-13.917-31.827-20.971-47.7c-0.295-0.666-1.068-1.119-1.62-1.671c-0.111,0.936-0.484,1.929-0.295,2.798
		c3.178,14.53,6.81,28.973,9.556,43.581c3.222,17.147,6.054,34.388,8.389,51.678c3.248,24.051,5.983,48.174,8.73,72.292
		c1.63,14.307,2.549,28.699,4.354,42.98c2.03,16.066,5,32.018,6.979,48.092c1.29,10.475,1.497,21.082,2.272,31.621
		c0.553,7.51,2.281,15.131,1.417,22.459c-0.411,3.475-5.633,8.887-8.716,8.914c-3.896,0.035-10.678-3.998-11.271-7.191
		c-2.77-14.957-3.459-30.283-5.642-45.369c-1.692-11.701-5.02-23.168-6.669-34.873c-2.172-15.395-3.188-30.949-5.097-46.385
		c-5.255-42.537-10.394-85.091-16.201-127.554c-4.584-33.532-10.527-66.881-14.982-100.429c-1.78-13.404-1.857-27.152-1.261-40.681
		c0.178-4.029,4.464-9.398,8.305-11.405c6.538-3.417,10.608,1.065,13.131,7.394c6.268,15.716,12.755,31.346,19.353,46.926
		c7.294,17.222,14.337,34.573,22.354,51.458c9.271,19.53,19.36,38.677,29.317,57.876c13.203,25.46,28.319,49.473,50.047,68.883
		c5.576,4.98,9.089,12.271,13.541,18.504c0.457,0.641,0.858,1.316,1.285,1.979c0.154-0.861,0.575-1.771,0.416-2.57
		c-1.154-5.842-2.696-11.619-3.615-17.494c-3.29-21.053-7.102-42.059-9.387-63.227c-4.016-37.197-8.168-74.441-10.155-111.778
		c-1.683-31.618-4.703-63.472,1.388-95.081c0.288-1.498-1.026-3.252-0.954-4.858c0.08-1.754,0.406-4.019,1.543-5.061
		c1.207-1.106,3.81-1.897,5.255-1.356c16.731,6.25,16.733,6.353,16.796,24.425c0.011,3.133-1.264,5.477-1.314,8.611
		C1558.615,184.531,1559.021,190.124,1558.625,190.138z M1551.984,207.21c0.312-0.068-0.316-2.772-0.001-2.84
		c0.194-12.153,0.665-24.315,0.288-36.451c-0.058-1.83-3.99-3.645-6.328-5.159c-0.276-0.179-2.542,1.512-2.659,2.485
		c-0.751,6.235-1.706,12.523-1.585,18.773c0.482,25.062,0.787,50.146,2.197,75.164c1.566,27.782,3.425,55.602,6.714,83.22
		c3.379,28.377,8.653,56.53,13.075,84.784c2.199,14.045,4.414,28.09,6.433,42.162c0.239,1.674-0.395,4.836-1.186,5.033
		c-2.144,0.531-4.818,0.352-6.847-0.541c-1.571-0.689-2.895-2.705-3.625-4.428c-6.627-15.623-17.194-28.643-29.439-39.738
		c-17.945-16.264-28.325-37.544-40.437-57.536c-10.483-17.307-18.585-36.114-27.028-54.583c-9.746-21.32-18.732-42.988-28.016-64.52
		c-6.104-14.159-12.101-28.363-18.305-42.476c-0.484-1.102-2.236-1.646-3.397-2.448c-1.029,1.943-3.092,3.978-2.931,5.816
		c2.369,26.888,4.483,53.818,7.798,80.597c2.856,23.085,7.379,45.958,10.753,68.986c2.499,17.047,4.524,34.168,6.421,51.295
		c2.437,21.992,4.616,44.014,6.714,66.039c0.555,5.797-0.276,11.777,0.7,17.473c3.511,20.467,7.863,40.793,11.229,61.283
		c2.297,13.961,3.418,28.115,5.26,42.158c0.183,1.395,1.724,2.609,2.636,3.908c0.763-1.26,2.169-2.508,2.191-3.779
		c0.207-11.758,1.189-23.621,0.006-35.256c-2.646-25.979-6.529-51.83-9.673-77.76c-3.023-24.939-5.354-49.969-8.727-74.857
		c-2.942-21.715-6.611-43.345-10.505-64.915c-5.189-28.748-11.043-57.375-16.209-86.125c-0.596-3.316,1.375-7.094,2.157-10.657
		c1.831,1.21,4.517,2.001,5.352,3.701c5.047,10.263,9.315,20.915,14.502,31.101c14.879,29.226,22.266,61.875,40.584,89.473
		c10.034,15.117,19.984,30.446,31.592,44.327c18.291,21.877,35.462,44.453,50.873,68.43c1.391,2.16,5.27,4.066,7.741,3.799
		c2.379-0.26,6.069-3.291,6.343-5.463c1.095-8.709,1.892-17.609,1.296-26.34c-0.862-12.637-3.464-25.146-4.539-37.777
		c-1.75-20.566-2.074-41.278-4.459-61.757c-2.734-23.49-7.854-46.705-10.491-70.203
		C1555.199,262.685,1554.386,236.228,1551.984,207.21z"/>
	<path fill="#FEFEFE" d="M1844.306,525.1c-3.097-31.18-6.836-64.109-9.443-97.129c-1.236-15.646,0.058-31.478-0.473-47.202
		c-0.446-13.267-1.567-26.532-2.942-39.74c-1.661-15.978-3.752-31.917-5.94-47.834c-2.021-14.695-4.801-29.292-6.561-44.014
		c-2.548-21.316,6.729-33.334,27.971-38.952c7.285-1.926,13.921-6.185,21.013-8.979c20.373-8.029,40.977-15.499,61.174-23.937
		c7.857-3.282,14.836-8.638,22.301-12.903c2.715-1.551,5.61-2.856,8.555-3.898c1.078-0.38,3.668,0.407,3.659,0.526
		c-0.509,7.192,8.938,13.299,2.61,20.907c-2.004,2.407-5.215,3.791-7.811,5.726c-19.669,14.67-43.805,16.751-66.171,23.973
		c-13.8,4.457-27.075,11.017-39.9,17.906c-17.896,9.613-15.045,5.202-11.051,26.551c4.628,24.742,7.915,49.731,12.027,74.574
		c1.157,6.995,3.099,13.866,4.883,20.742c0.164,0.636,1.758,1.189,2.738,1.283c8.319,0.784,16.65,1.451,24.979,2.156
		c8.513,0.719,17.049,2.248,25.53,1.979c13.8-0.437,27.594-1.754,41.333-3.237c16.841-1.817,33.615-4.246,50.433-6.293
		c6.559-0.798,8.893,3.854,10.577,8.927c1.862,5.609,0.233,9.691-4.866,13.15c-10.605,7.196-22.196,5.643-33.977,5.49
		c-24.18-0.315-48.38-0.041-72.553,0.647c-14.561,0.414-29.099,1.924-43.604,3.376c-1.469,0.147-3.88,3.406-3.747,5.047
		c1.084,13.246,3.033,26.422,4.007,39.672c1.03,14.021,0.862,28.133,1.969,42.146c1.553,19.652,3.85,39.246,5.732,58.873
		c1.074,11.182,10.945,10.471,17.794,12.08c24.7,5.807,49.583,8.453,75.164,4.52c16.809-2.584,34.068-2.609,51.142-2.975
		c11.405-0.244,15.786,7.99,10.322,17.879c-2.463,4.457-4.732,9.062-7.657,13.199c-1.141,1.613-3.82,2.975-5.825,3.01
		c-17.183,0.316-34.39,0.844-51.552,0.242c-18.784-0.66-37.569-2.033-56.272-3.906c-11.769-1.18-23.586-3.08-35.029-6.031
		c-16.215-4.186-19.932-9.857-20.676-27.445C1844.051,532.456,1844.232,529.692,1844.306,525.1z M1928.701,548.567
		c-0.039-0.307-2.699,0.855-2.738,0.551c-6.648-0.52-13.354-0.664-19.935-1.65c-8.854-1.324-17.62-3.256-26.408-5.004
		c-10.226-2.035-19.635-4.893-20.853-17.758c-0.89-9.41-2.594-18.744-3.463-28.154c-1.074-11.621-1.743-23.281-2.44-34.934
		c-0.933-15.551-1.421-31.133-2.669-46.656c-1.081-13.451-3.044-26.83-4.34-40.265c-0.137-1.406,1.533-4.25,2.5-4.311
		c16.648-1.047,33.312-2.039,49.985-2.478c20.732-0.547,41.486-0.328,62.218-0.922c13.641-0.392,27.273-1.427,40.86-2.709
		c2.218-0.209,4.177-3.193,6.254-4.895c-2.508-1.5-5.02-4.277-7.524-4.271c-8.713,0.023-17.428,0.953-26.134,1.643
		c-20.334,1.612-40.64,4.151-61.001,4.685c-19.852,0.52-39.759-0.923-59.633-1.727c-1.488-0.061-3.955-1.714-4.18-2.953
		c-1.228-6.747-1.965-13.588-2.743-20.412c-2.124-18.649-3.795-37.359-6.424-55.936c-1.522-10.756-4.29-21.368-6.968-31.926
		c-2.847-11.23-1.193-19.159,11.258-23.746c19.957-7.351,38.998-17.385,59.226-23.744c18.414-5.789,37.49-9.19,53.969-20.144
		c4.076-2.708,5.815-3.914,1.345-8.5c-6.043-6.201-9.706-0.697-14.104,1.371c-18.604,8.747-36.917,18.154-55.773,26.31
		c-13.448,5.819-28.112,8.94-41.315,15.202c-22.896,10.859-22.2,8.83-20.401,33.62c1.959,27.011,7.354,53.763,10.946,80.668
		c1.95,14.6,4.819,29.313,4.555,43.925c-0.627,34.511,0.349,68.804,4.88,103.076c2.529,19.133,3.267,38.51,4.532,57.797
		c0.536,8.166,2.565,15.85,11.053,18.082c13.237,3.48,26.753,6.357,40.332,7.967c13.733,1.629,27.684,1.422,41.541,1.992
		c17.839,0.734,35.68,1.492,53.522,2.141c9.585,0.348,13.836-5.885,16.146-13.934c0.29-1.016-1.455-3.738-2.391-3.805
		c-8.593-0.625-17.253-1.494-25.826-1.039C1966.379,546.793,1948.857,547.084,1928.701,548.567z"/>
	<path fill="#FEFEFE" d="M1246.288,353.714c3.065-19.941,5.284-40.061,9.424-59.776c4.655-22.169,11.217-43.933,16.608-65.955
		c2.777-11.345,4.826-22.87,7.169-34.32c0.232-1.141,0.776-2.727,0.26-3.436c-6.581-9.014,1.805-7.669,6.037-8.357
		c4.268-0.693,8.806,0.22,13.053-0.536c6.614-1.176,8.272,3.167,9.503,7.768c5.551,20.748,10.87,41.556,16.343,62.324
		c1.55,5.878,3.556,11.641,4.974,17.546c2.181,9.085,4.276,18.205,5.98,27.389c4.844,26.114,9.29,52.302,14.233,78.396
		c4.918,25.966,9.644,51.996,15.661,77.714c2.997,12.807,9.214,24.82,13.061,37.471c8.457,27.801,16.309,55.783,24.463,83.676
		c2,6.842,5.021,13.504,6.024,20.471c0.551,3.822-1.498,8.502-3.671,11.986c-0.809,1.295-5.317,0.238-8.134,0.346
		c-1.479,0.057-3.308,0.947-4.355,0.357c-3.403-1.916-8.421-3.725-9.383-6.688c-2.706-8.34-2.908-17.484-5.552-25.855
		c-3.729-11.811-9.032-23.111-13.17-34.805c-4.932-13.932-9.684-27.947-13.908-42.107c-9.096-30.479-17.865-61.055-26.61-91.635
		c-1.425-4.986-4.321-7.243-9.327-7.006c-15.027,0.711-30.055,1.442-45.076,2.28c-0.489,0.027-1.208,1.254-1.321,2
		c-2.979,19.525-5.875,39.062-8.825,58.59c-1.63,10.803-3.995,21.539-4.839,32.396c-1.151,14.828-0.302,29.838-1.867,44.604
		c-2.517,23.746-6.231,47.367-9.593,71.018c-1.566,11.018-3.135,22.064-5.59,32.896c-0.447,1.973-5.052,3.512-7.989,4.271
		c-3.041,0.783-7.865,1.734-9.286,0.193c-2.677-2.9-4.892-7.584-4.778-11.451c0.341-11.486,1.32-23.033,3.178-34.371
		c1.484-9.07,5.737-17.744,6.768-26.818c1.729-15.238,1.24-30.721,2.829-45.982c2.405-23.098,5.871-46.084,8.738-69.135
		c2.527-20.334,4.767-40.703,7.35-61.031c0.449-3.533,0.359-4.979-3.908-4.515c-6.583,0.718-13.262,0.515-19.881,0.984
		c-7.062,0.501-8.374-3.488-7.621-9.219c0.537-4.086,1.588-8.132,1.81-12.227c0.333-6.238,3.931-6.968,8.995-6.344
		c4.453,0.548,8.979,0.51,13.434,1.056C1249.543,369.35,1247.523,360.953,1246.288,353.714z M1231.439,375.684
		c-0.012-0.148-0.024-0.296-0.037-0.446c-1.762,0.085-4.145-0.516-5.155,0.399c-2.131,1.926-3.99,4.479-5.004,7.139
		c-0.341,0.894,2.18,4.14,3.448,4.172c5.885,0.151,12.084,0.581,17.625-1c11.046-3.152,11.937-2.648,10.152,9.022
		c-3.722,24.345-7.807,48.654-10.729,73.097c-3.244,27.123-5.159,54.4-8.021,81.572c-2.857,27.148-6.229,54.242-9.18,81.383
		c-0.271,2.494,0.285,7.016,1.483,7.398c5.596,1.801,7.429-1.818,7.662-6.893c0.438-9.539,0.354-19.168,1.704-28.588
		c2.731-19.064,7.158-37.916,9.259-57.033c2.622-23.85,2.945-47.949,5.474-71.812c2.755-25.992,6.735-51.863,10.723-77.705
		c0.346-2.247,4.587-5.209,7.26-5.483c4.453-0.458,9.127,1.671,13.663,1.504c10.892-0.402,21.745-1.715,32.634-2.235
		c5.541-0.264,12.682-2.663,14.961,5.255c4.914,17.076,9.183,34.333,13.79,51.5c3.581,13.34,6.625,26.869,11.058,39.924
		c8.534,25.137,18.061,49.934,26.807,74.998c3.687,10.562,6.19,21.535,9.852,32.107c0.632,1.826,4.334,2.65,6.729,3.676
		c0.175,0.076,1.998-2.123,1.812-3.002c-3.697-17.457-6.504-35.203-11.672-52.229c-7.486-24.656-16.473-48.869-25.251-73.113
		c-8.58-23.695-12.764-48.271-16.256-73.083c-1.795-12.742-4.971-25.281-7.061-37.987c-3.811-23.164-6.5-46.54-11.156-69.525
		c-3.123-15.418-9.083-30.244-13.307-45.465c-4.432-15.973-8.167-32.139-12.583-48.117c-0.618-2.235-3.761-5.718-5.091-5.448
		c-4.104,0.834-10.549-2.659-11.727,5.255c-0.972,6.532-2.16,13.063-3.785,19.46c-5.954,23.425-12.663,46.673-18.033,70.227
		c-3.558,15.601-5.589,31.575-7.792,47.451c-1.687,12.156-2.173,24.49-4.149,36.588c-0.396,2.425-4.835,5.007-7.896,5.969
		C1239.844,375.815,1235.533,375.403,1231.439,375.684z"/>
	<path fill="#FEFEFE" d="M2296.225,392.952c-2.353,0.082-4.707,0.304-7.052,0.212c-3.764-0.148-7.521-0.505-11.28-0.773
		c0.405,4.597,0.19,9.352,1.323,13.762c4.15,16.145,9.49,32.014,13.011,48.283c5.618,25.984,9.627,52.316,15.309,78.285
		c3.732,17.053,9.52,33.646,13.775,50.598c2.377,9.467,3.789,19.209,5.08,28.898c0.821,6.143-4.441,9.787-10.328,7.947
		c-1.312-0.41-2.881-0.143-4.31-0.002c-5.344,0.527-6.575-1.104-6.502-6.994c0.111-8.836-1.981-17.738-3.518-26.547
		c-2.438-13.984-4.732-28.018-7.937-41.834c-3.297-14.223-7.818-28.158-11.432-42.314c-5.572-21.812-10.836-43.709-16.219-65.57
		c-2.283-9.277-4.021-18.734-7.088-27.744c-1.103-3.24-5.045-7.121-8.262-7.738c-9.728-1.867-19.728-2.384-29.638-3.214
		c-5.83-0.488-11.778-0.037-17.52-0.968c-7.398-1.2-8.632,3.026-9.404,8.665c-2.318,16.91-4.381,33.873-7.344,50.674
		c-3.328,18.879-8.283,37.49-11.154,56.424c-3.379,22.291-5.223,44.812-7.842,67.221c-1.345,11.494-8.744,15.707-18.961,10.566
		c-1.757-0.885-3.593-4.012-3.437-5.947c2.576-32.246,4.928-64.523,8.435-96.672c3.442-31.578,8.102-63.023,12.291-94.521
		c0.871-6.55-1.509-8.748-8.22-7.989c-5.563,0.629-11.584,0.734-16.848-0.814c-3.162-0.93-7.111-5.293-7.418-8.435
		c-0.492-5.045,0.219-11.821,3.338-15.055c2.191-2.274,9.234,0.024,14.092,0.476c1.728,0.161,3.398,0.909,5.101,1.378
		c16.256,4.48,19.889,2.858,23.486-13.171c4.58-20.395,8.026-41.041,12.33-61.5c3.182-15.11,7.428-30.006,10.287-45.17
		c1.959-10.385,2.262-21.076,3.471-31.61c1.33-11.61,2.822-23.203,4.356-34.788c0.109-0.82,1.021-1.732,1.8-2.23
		c5.502-3.532,19.26,1.526,21.067,8.056c2.966,10.692,5.455,21.514,8.158,32.277c4.84,19.28,9.978,38.491,14.463,57.853
		c5.504,23.765,10.262,47.703,15.787,71.461c1.67,7.171,4.633,14.077,7.473,20.908c0.521,1.252,3.259,1.979,5.07,2.225
		c8.305,1.126,16.658,1.92,24.967,3.026c1.396,0.185,3.713,1.179,3.822,2.029c0.615,4.758,2.033,10.095,0.479,14.215
		c-1.095,2.9-6.341,4.534-10.015,6.045c-2.049,0.842-2.887,0.065-5.252,0.133C2298.02,392.891,2296.227,393.026,2296.225,392.952z
		 M2295.958,385.138c0.012-0.135,1.93,0.113,1.94-0.023c2.146,0.035,2.484,0.092,4.502-0.403c1.814-0.445,3.375-1.918,5.048-2.938
		c-1.621-0.516-3.207-1.238-4.869-1.512c-9.051-1.497-18.129-2.834-27.17-4.384c-0.906-0.156-2.09-1.24-2.369-2.135
		c-2.762-8.891-5.905-17.713-7.879-26.788c-2.893-13.306-4.26-26.96-7.452-40.182c-5.632-23.306-12.291-46.361-18.248-69.59
		c-4.205-16.395-7.816-32.944-12.132-49.31c-0.461-1.756-3.868-3.827-5.881-3.797c-2.312,0.035-6.221,1.877-6.604,3.575
		c-1.5,6.628-1.759,13.528-2.705,20.294c-2.841,20.301-5.328,40.667-8.851,60.851c-2.5,14.326-6.953,28.304-9.627,42.607
		c-3.228,17.27-5.422,34.729-8.274,52.073c-0.347,2.103-1.513,4.963-3.154,5.805c-6.828,3.501-13.771,6.088-21.816,2.597
		c-4.59-1.99-9.899-2.528-14.957-3.102c-1.627-0.185-3.477,1.604-5.225,2.491c1.34,1.995,2.486,5.512,4.057,5.711
		c5.365,0.682,10.977,0.834,16.316,0.021c9.252-1.41,12.918,0.747,12.553,10.012c-0.531,13.57-0.678,27.328-3.117,40.617
		c-7.02,38.246-13.678,76.484-15.357,115.426c-0.524,12.195-1.52,24.367-2.014,36.562c-0.057,1.377,1.517,3.668,2.756,4.01
		c1.187,0.328,3.957-1.064,4.244-2.166c2.019-7.729,4.066-15.508,5.182-23.402c2.972-21.057,4.994-42.254,8.293-63.254
		c4.138-26.348,9.302-52.533,13.728-78.836c1.26-7.498,2.287-15.213,1.865-22.742c-0.226-4.048,0.104-5.617,3.903-5.339
		c21.652,1.583,43.295,3.265,64.929,5.08c1.27,0.107,3.053,1.429,3.51,2.608c2.326,5.989,4.924,11.981,6.26,18.224
		c3.021,14.131,4.607,28.598,8.136,42.584c7.325,29.053,15.946,57.781,23.241,86.84c5.101,20.314,8.816,40.975,13.345,61.436
		c0.514,2.316,2.17,4.438,3.553,6.475c0.397,0.586,1.695,0.564,2.58,0.82c0.176-0.715,0.619-1.48,0.494-2.135
		c-2.351-12.301-4.453-24.658-7.23-36.863c-5.723-25.152-11.85-50.209-17.738-75.324c-5.184-22.098-10.293-44.217-15.381-66.338
		c-2.938-12.77-6.195-25.492-8.473-38.382c-1.162-6.579,0.922-11.733,9.746-9.791
		C2284.953,384.291,2290.503,384.497,2295.958,385.138z"/>
	<path fill="#FEFEFE" d="M2061.602,564.553c-2.118-53.943-4.612-107.877-6.224-161.836c-1.093-36.634-0.015-73.346-1.625-109.948
		c-1.493-33.874-5.309-67.645-7.993-101.47c-0.333-4.19,0.616-8.553-0.167-12.619c-0.732-3.812-3.132-7.278-4.476-11.012
		c-0.649-1.804-0.715-3.87-0.771-5.825c-0.309-10.569,0.13-21.21-0.982-31.688c-0.953-8.977,6.262-11.042,11.066-14.554
		c3.127-2.288,8.312-1.763,12.574-2.498c0.98,6.309,2.731,12.608,2.811,18.928c0.453,35.925-0.319,71.886,1.014,107.772
		c0.775,20.824,5.751,41.469,6.964,62.304c1.429,24.495,0.6,49.114,1.194,73.669c0.343,14.219,1.656,28.412,2.334,42.625
		c0.206,4.307-0.518,8.652-0.357,12.965c0.528,14.082,1.379,28.148,1.889,42.23c0.529,14.646,0.787,29.305,1.206,43.957
		c0.507,17.766,1.173,35.529,1.554,53.297c0.314,14.621,0.229,29.252,0.619,43.871c0.031,1.152,2.363,2.309,3.729,3.322
		c0.387,0.289,3.102,2.334,3.396,2.637c12.958,4.432,20.089,0.285,30.96,0.945c6.152,0.375,12.486-2.914,18.807-4.219
		c2.053-0.424,5.34-0.598,6.256,0.553c1.43,1.795,2.283,5.066,1.707,7.277c-3.994,15.375-6.588,16.961-22.009,16.615
		c-14.315-0.32-28.644-0.119-42.969-0.168c-1.181-0.004-2.403,0.01-3.531-0.277c-7.248-1.85-13.716-3.09-14.218-13.609
		c-1.008-21.064-0.188-36.59-2.264-57.604C2060.955,567.51,2061.614,566.51,2061.602,564.553z M2121.882,633.67
		c4.584-0.754,10.121-1.453,15.521-2.729c1.155-0.275,1.813-2.652,2.7-4.061c-1.086-0.379-2.207-1.17-3.252-1.078
		c-15.952,1.381-31.901,2.812-47.84,4.373c-9.387,0.918-15.029-3.436-14.807-11.736c0.45-16.811,1.337-33.621,1.25-50.43
		c-0.083-15.908-1.306-31.811-1.806-47.723c-1.019-32.322-1.933-64.646-2.795-96.971c-0.632-23.652-1.129-47.31-1.655-70.964
		c-0.345-15.52-0.088-31.076-1.062-46.556c-2.168-34.414-5.588-68.758-7.248-103.192c-1.241-25.714-0.463-51.523-0.812-77.286
		c-0.024-1.81-1.938-3.593-2.973-5.388c-3.55,3.246-10.034,3.752-9.271,10.963c1.275,12.041,2.272,24.115,3.139,36.194
		c1.266,17.666,2.068,35.367,3.521,53.016c1.464,17.769,4.306,35.458,5.029,53.246c0.737,18.153-0.855,36.389-0.528,54.573
		c0.352,19.498,1.777,38.974,2.689,58.461c1.308,27.972,2.922,55.935,3.756,83.919c0.789,26.465,0.188,52.977,1.215,79.426
		c0.934,23.99,3.513,47.912,4.8,71.896c0.486,9.059,5.897,11.129,13.069,11.383C2096.61,633.434,2108.709,633.459,2121.882,633.67z"
		/>
	<path fill="none" d="M1551.984,207.21c2.402,29.02,3.216,55.475,6.465,84.399c2.638,23.497,7.756,46.712,10.49,70.202
		c2.386,20.48,2.711,41.191,4.461,61.758c1.074,12.631,3.676,25.143,4.537,37.777c0.596,8.73-0.199,17.631-1.295,26.34
		c-0.272,2.172-3.964,5.203-6.342,5.461c-2.473,0.27-6.354-1.637-7.742-3.799c-15.411-23.977-32.582-46.553-50.874-68.428
		c-11.605-13.881-21.558-29.209-31.591-44.328c-18.318-27.597-25.705-60.246-40.584-89.473
		c-5.186-10.186-9.455-20.837-14.501-31.101c-0.836-1.7-3.521-2.49-5.353-3.701c-0.782,3.563-2.752,7.341-2.157,10.657
		c5.166,28.751,11.021,57.378,16.209,86.125c3.894,21.57,7.563,43.201,10.506,64.916c3.373,24.891,5.703,49.918,8.726,74.857
		c3.145,25.93,7.029,51.781,9.672,77.76c1.185,11.635,0.201,23.498-0.006,35.256c-0.021,1.271-1.428,2.521-2.19,3.779
		c-0.911-1.299-2.453-2.514-2.636-3.908c-1.841-14.043-2.963-28.195-5.26-42.158c-3.367-20.49-7.719-40.816-11.229-61.283
		c-0.978-5.695-0.146-11.676-0.699-17.473c-2.1-22.025-4.279-44.047-6.714-66.039c-1.897-17.125-3.924-34.249-6.422-51.295
		c-3.374-23.028-7.896-45.9-10.753-68.986c-3.314-26.779-5.43-53.708-7.798-80.597c-0.161-1.839,1.901-3.875,2.931-5.817
		c1.161,0.802,2.913,1.347,3.396,2.448c6.206,14.113,12.202,28.317,18.306,42.476c9.283,21.532,18.27,43.2,28.016,64.52
		c8.444,18.469,16.545,37.276,27.028,54.583c12.11,19.992,22.491,41.273,40.437,57.535c12.246,11.098,22.813,24.117,29.439,39.738
		c0.73,1.725,2.054,3.738,3.626,4.428c2.027,0.893,4.702,1.072,6.846,0.543c0.792-0.197,1.424-3.357,1.185-5.033
		c-2.018-14.072-4.232-28.115-6.432-42.162c-4.422-28.254-9.696-56.406-13.076-84.784c-3.29-27.618-5.146-55.438-6.712-83.22
		c-1.413-25.017-1.715-50.103-2.199-75.164c-0.12-6.25,0.834-12.538,1.587-18.773c0.116-0.972,2.382-2.664,2.659-2.484
		c2.337,1.514,6.271,3.329,6.328,5.16c0.376,12.135-0.094,24.297-0.289,36.451C1551.668,204.438,1552.297,207.142,1551.984,207.21z"
		/>
	<path fill="none" d="M1557.718,594.004c0.479-30.129,17.761-49.916,39.076-67.744c21.979-18.383,47.532-27.986,75.402-32.217
		c9.262-1.404,18.77-1.312,27.963-3.002c8.015-1.473,10.395-10.408,5.151-16.52c-6.62-7.719-12.923-15.729-19.832-23.176
		c-10.893-11.738-17.808-25.648-23.132-40.477c-3.803-10.594-7.952-21.145-10.629-32.039c-1.921-7.819-1.194-16.25-2.491-24.273
		c-1.518-9.407-3.959-18.663-5.979-27.99c-4.597-21.248-4.807-42.51,5.834-61.867c9.171-16.683,23.921-28.581,41.417-36.107
		c9.971-4.29,20.606-7.438,31.241-9.687c18.724-3.959,30.879-15.661,39.568-31.582c5.824-10.669,11.34-21.613,15.735-32.923
		c3.445-8.868,4.787-18.537,7.469-27.732c0.56-1.918,2.896-3.317,4.415-4.956c1.313,2.235,4.008,4.663,3.729,6.676
		c-3.784,27.308-11.371,53.184-32.315,72.744c-6.829,6.376-15.305,10.957-22.515,16.974c-1.799,1.502-3.115,6.496-2.038,7.958
		c2.667,3.619,6.404,7.58,10.495,8.821c17.227,5.232,26.494,16.634,33.383,33.146c11.42,27.366,3.856,51.054-10.181,73.885
		c-6.039,9.823-13.768,19.318-22.708,26.497c-17.784,14.279-37.516,9.789-56.695,2.023c-5.263-2.13-10.053-5.493-15.388-7.354
		c-2.967-1.035-8.434-1.429-9.557,0.159c-2.164,3.07-3.657,8.254-2.584,11.667c3.381,10.746,9.261,20.777,12.008,31.633
		c4.906,19.391,17.848,33.518,29.065,48.893c3.701,5.072,7.558,10.068,10.809,15.424c10.391,17.113,27.214,26.867,43.333,36.961
		c19.462,12.188,35.253,27.061,44.685,48.275c4.278,9.625,9.286,18.926,13.58,28.543c7.434,16.658,3.354,31.811-6.018,46.543
		c-12.865,20.221-27.06,39.162-46.622,53.486c-20.913,15.312-44.018,23.891-70.119,26.088c-15.997,1.348-31.288-0.264-46.667-3.459
		c-15.99-3.324-28.883-12.635-41.446-22.367c-19.698-15.256-34.022-34.877-42.584-57.984
		C1558.805,616.766,1559.209,605.034,1557.718,594.004z M1807.208,589.534c0.729-0.266,1.459-0.531,2.188-0.797
		c-2.771-6.84-4.244-14.676-8.579-20.312c-9.048-11.764-19.396-22.561-29.61-33.381c-7.733-8.191-14.818-18.512-24.463-23.023
		c-13.923-6.512-29.741-9.547-45.07-12.252c-8.878-1.568-18.555-0.539-27.567,1.045c-11.587,2.037-22.928,5.602-34.261,8.896
		c-7.691,2.234-15.907,3.939-22.643,7.965c-21.047,12.582-34.357,31.92-42.73,54.498c-3.039,8.197-7.128,18.518-4.63,25.768
		c6.605,19.18,16.165,37.402,25.293,55.633c6.655,13.287,16.307,24.186,29.261,32.113c10.503,6.426,20.484,14.471,33.397,14.221
		c10.822-0.209,21.58-3.051,32.413-3.455c22.77-0.848,43.895-6.678,63.561-18.148c16.933-9.877,31.178-22.182,41.707-39.195
		C1805.064,623.614,1806.688,606.862,1807.208,589.534z M1772.671,285.696c-1.522-4.713-1.884-13.124-6.244-17.836
		c-9.725-10.509-20.938-19.864-32.517-28.365c-9.194-6.75-19.906-11.786-31.717-5.416c-4.456,2.405-8.665,5.452-12.521,8.751
		c-10.992,9.404-22.566,18.324-32.375,28.864c-11.241,12.076-12.034,27.689-7.947,42.815c3.792,14.033,5.854,29.607,22.473,36.355
		c7.867,3.194,14.656,10.564,22.59,11.786c24.175,3.726,45.027-6.031,60.982-23.235
		C1768.197,325.607,1769.238,306.252,1772.671,285.696z"/>
	<path fill="none" d="M1927.686,548.641c20.155-1.48,38.692-1.846,58.873-2.918c8.572-0.455,17.232,0.414,25.825,1.039
		c0.937,0.068,2.683,2.791,2.392,3.805c-2.312,8.049-6.562,14.283-16.147,13.936c-17.844-0.648-35.683-1.408-53.522-2.141
		c-13.856-0.572-27.808-0.365-41.54-1.994c-13.578-1.609-27.093-4.486-40.333-7.965c-8.488-2.232-10.518-9.918-11.053-18.084
		c-1.266-19.285-2.003-38.664-4.531-57.795c-4.532-34.271-5.507-68.564-4.88-103.077c0.266-14.613-2.604-29.327-4.556-43.925
		c-3.593-26.905-8.986-53.658-10.945-80.668c-1.799-24.79-2.495-22.76,20.4-33.62c13.204-6.262,27.867-9.382,41.316-15.201
		c18.856-8.157,37.169-17.563,55.772-26.311c4.398-2.067,8.062-7.572,14.104-1.37c4.471,4.586,2.729,5.792-1.346,8.5
		c-16.479,10.952-35.557,14.354-53.969,20.143c-20.228,6.359-39.269,16.394-59.226,23.744
		c-12.452,4.587-14.104,12.517-11.257,23.747c2.677,10.558,5.443,21.168,6.967,31.926c2.628,18.576,4.3,37.287,6.424,55.935
		c0.778,6.824,1.516,13.665,2.743,20.413c0.226,1.238,2.692,2.892,4.18,2.952c19.875,0.803,39.781,2.247,59.634,1.727
		c20.36-0.533,40.667-3.073,61.001-4.685c8.707-0.689,17.421-1.62,26.134-1.643c2.505-0.005,5.016,2.771,7.523,4.271
		c-2.076,1.702-4.036,4.686-6.254,4.895c-13.587,1.282-27.222,2.317-40.86,2.709c-20.73,0.594-41.484,0.375-62.218,0.922
		c-16.675,0.439-33.338,1.431-49.985,2.478c-0.966,0.061-2.635,2.905-2.501,4.312c1.297,13.437,3.26,26.814,4.34,40.265
		c1.249,15.523,1.737,31.105,2.67,46.656c0.698,11.652,1.367,23.312,2.441,34.934c0.87,9.41,2.574,18.744,3.462,28.154
		c1.217,12.867,10.626,15.725,20.853,17.758c8.788,1.75,17.554,3.682,26.408,5.006c6.58,0.984,13.286,1.131,19.934,1.65
		C1926.001,549.424,1927.645,548.334,1927.686,548.641z"/>
	<path fill="none" d="M2121.882,633.67c-13.173-0.211-25.271-0.236-37.355-0.662c-7.173-0.252-12.584-2.322-13.07-11.381
		c-1.288-23.984-3.866-47.906-4.8-71.896c-1.027-26.451-0.428-52.961-1.215-79.426c-0.834-27.986-2.449-55.947-3.758-83.92
		c-0.912-19.488-2.337-38.964-2.688-58.461c-0.328-18.183,1.266-36.42,0.527-54.573c-0.724-17.787-3.564-35.477-5.027-53.246
		c-1.454-17.649-2.255-35.35-3.521-53.016c-0.867-12.079-1.863-24.153-3.14-36.194c-0.765-7.21,5.72-7.717,9.271-10.963
		c1.034,1.795,2.948,3.579,2.974,5.388c0.348,25.763-0.431,51.572,0.811,77.286c1.659,34.434,5.081,68.778,7.247,103.192
		c0.976,15.479,0.719,31.036,1.064,46.556c0.524,23.655,1.022,47.311,1.654,70.963c0.863,32.326,1.778,64.65,2.795,96.973
		c0.5,15.912,1.724,31.811,1.806,47.723c0.087,16.807-0.798,33.617-1.249,50.428c-0.223,8.301,5.42,12.656,14.806,11.736
		c15.938-1.559,31.889-2.99,47.842-4.373c1.045-0.092,2.164,0.699,3.25,1.08c-0.887,1.406-1.545,3.785-2.7,4.059
		C2132.003,632.217,2126.466,632.917,2121.882,633.67z"/>
	<path fill="#FEFEFE" d="M1772.671,285.696c-3.433,20.556-4.474,39.911-17.276,53.718c-15.955,17.205-36.808,26.961-60.981,23.235
		c-7.936-1.222-14.724-8.592-22.59-11.786c-16.619-6.746-18.681-22.322-22.474-36.355c-4.087-15.125-3.294-30.739,7.947-42.815
		c9.811-10.541,21.384-19.46,32.376-28.864c3.855-3.299,8.065-6.347,12.521-8.751c11.811-6.37,22.521-1.334,31.717,5.416
		c11.578,8.501,22.791,17.855,32.516,28.365C1770.787,272.571,1771.146,280.983,1772.671,285.696z M1767.07,286.31
		c-1.114-2.976-2.008-8.358-4.836-12.372c-9.916-14.059-23.425-23.815-38.803-31.492c-7.078-3.533-13.721-5.191-20.546-1.325
		c-16.319,9.24-30.636,20.961-41.515,36.433c-1.862,2.649-3.831,5.903-3.969,8.958c-0.421,9.235-1.582,18.915,0.607,27.655
		c2.133,8.519,6.934,17.027,12.638,23.79c4.687,5.555,12.228,8.885,18.863,12.545c4.193,2.312,9.246,5.219,13.573,4.748
		c16.385-1.79,32.021-6.489,44.67-17.87C1762.224,324.361,1763.688,306.268,1767.07,286.31z"/>
	<path fill="#FEFEFE" d="M1282.075,250.321c1-10.813-0.314-16.876,1.204-27.617c0.323-2.295,4.078-6.167,5.376-5.84
		c2.848,0.718,6.641,3.206,7.411,5.765c5.918,19.682,11.337,39.518,16.649,59.375c4.428,16.55,8.542,33.183,12.717,49.799
		c2.433,9.679,4.837,19.369,7,29.111c1.248,5.616-4.79,12.186-10.245,11.731c-8.133-0.679-16.296-1.824-24.414-1.607
		c-8.979,0.241-17.971,1.501-26.874,2.858c-8.425,1.285-11.619-1.307-9.979-9.827c4.843-25.136,10.027-50.206,14.954-75.327
		c2.177-11.098,4.057-22.255,6.071-33.383C1281.314,255.276,1282.708,250.404,1282.075,250.321z M1288.384,254.57
		c-3.987,22.306-7.787,44.192-11.851,66.03c-2.348,12.612-5.196,25.131-7.653,37.725c-0.669,3.434-1.583,7.499,4.337,7.181
		c15.573-0.838,31.154-1.568,46.704-2.708c1.252-0.092,3.546-3.279,3.256-4.55c-5.81-25.525-11.706-51.036-18.064-76.429
		c-4.08-16.289-8.907-32.389-13.491-48.55c-0.395-1.392-1.48-2.588-2.246-3.876c-0.703,1.487-2.029,2.988-2,4.46
		C1287.517,240.892,1288.026,247.922,1288.384,254.57z"/>
	<path fill="none" d="M2295.958,385.138c-5.457-0.642-11.006-0.848-16.346-2.022c-8.824-1.942-10.908,3.212-9.746,9.79
		c2.276,12.891,5.532,25.612,8.471,38.383c5.09,22.121,10.199,44.238,15.381,66.338c5.892,25.113,12.019,50.172,17.74,75.324
		c2.779,12.205,4.881,24.562,7.229,36.861c0.127,0.656-0.316,1.422-0.492,2.137c-0.885-0.256-2.182-0.234-2.58-0.82
		c-1.383-2.037-3.039-4.158-3.553-6.477c-4.527-20.461-8.242-41.121-13.345-61.434c-7.295-29.061-15.916-57.789-23.241-86.84
		c-3.527-13.988-5.113-28.455-8.136-42.584c-1.336-6.242-3.934-12.236-6.26-18.225c-0.457-1.178-2.242-2.5-3.51-2.608
		c-21.634-1.815-43.277-3.497-64.929-5.08c-3.799-0.278-4.131,1.291-3.903,5.339c0.42,7.529-0.605,15.246-1.865,22.742
		c-4.426,26.305-9.59,52.49-13.729,78.836c-3.297,21-5.319,42.199-8.291,63.254c-1.114,7.895-3.164,15.674-5.182,23.402
		c-0.287,1.104-3.061,2.494-4.244,2.168c-1.239-0.342-2.812-2.633-2.756-4.012c0.492-12.193,1.488-24.367,2.014-36.561
		c1.681-38.941,8.336-77.182,15.357-115.428c2.438-13.287,2.586-27.045,3.117-40.615c0.363-9.264-3.301-11.42-12.553-10.011
		c-5.341,0.814-10.951,0.662-16.318-0.021c-1.568-0.2-2.715-3.716-4.057-5.712c1.75-0.886,3.6-2.674,5.225-2.491
		c5.057,0.574,10.369,1.112,14.959,3.102c8.047,3.492,14.988,0.904,21.814-2.597c1.643-0.842,2.811-3.702,3.155-5.806
		c2.854-17.342,5.048-34.803,8.275-52.072c2.674-14.304,7.127-28.281,9.627-42.607c3.521-20.185,6.01-40.55,8.85-60.852
		c0.947-6.766,1.205-13.665,2.705-20.293c0.386-1.698,4.291-3.541,6.605-3.575c2.012-0.029,5.42,2.041,5.881,3.797
		c4.315,16.365,7.926,32.915,12.131,49.31c5.957,23.23,12.619,46.284,18.248,69.59c3.193,13.221,4.562,26.876,7.453,40.182
		c1.973,9.074,5.117,17.897,7.879,26.788c0.279,0.895,1.463,1.979,2.369,2.135c9.041,1.55,18.118,2.887,27.17,4.384
		c1.662,0.274,3.248,0.997,4.866,1.513c-1.672,1.02-3.231,2.493-5.045,2.938c-2.018,0.495-4.266,0.052-6.412,0.018
		C2295.98,384.866,2295.97,385.002,2295.958,385.138z M2186.207,370.677c2.691,1.703,5.023,4.404,7.51,4.554
		c18.769,1.137,37.82,0.144,55.533,8.227c7.779,3.55,11.805-2.212,13.324-7.242c1.57-5.194,0.391-11.59-0.84-17.185
		c-4.14-18.849-8.765-37.594-13.345-56.342c-3.557-14.568-7.52-29.039-10.952-43.636c-3.47-14.761-6.416-29.645-9.834-44.419
		c-0.513-2.214-2.332-4.125-3.55-6.175c-1.586,2.517-3.916,4.858-4.562,7.595c-0.732,3.118,0.617,6.688,0.063,9.89
		c-3.217,18.611-6.614,37.193-10.166,55.745c-3.28,17.144-6.231,34.389-10.467,51.303
		C2195.876,345.152,2190.955,356.841,2186.207,370.677z"/>
	<path fill="#FEFEFE" d="M2189.396,370.246c4.748-13.834,6.479-25.093,9.524-37.252c4.236-16.914,7.187-34.158,10.469-51.303
		c3.552-18.551,6.949-37.133,10.164-55.745c0.554-3.202-0.795-6.772-0.062-9.89c0.645-2.738,2.975-5.079,4.562-7.596
		c1.216,2.05,3.037,3.961,3.55,6.174c3.416,14.775,6.364,29.658,9.834,44.419c3.432,14.597,7.395,29.068,10.952,43.636
		c4.58,18.749,9.203,37.494,13.345,56.342c1.229,5.596,2.407,11.992,0.84,17.185c-1.521,5.029-5.545,10.791-13.324,7.242
		c-17.713-8.083-36.766-7.091-55.533-8.227C2191.23,375.081,2189.681,373.268,2189.396,370.246z M2195.412,364.483
		c1.371,1.278,2.762,3.629,3.969,3.538c18.256-1.373,35.879,1.294,53.082,7.395c0.781,0.277,2.996-0.926,3.031-1.527
		c0.207-3.489,0.357-7.07-0.207-10.501c-1.902-11.583-3.705-23.211-6.318-34.645c-2.938-12.855-6.68-25.527-10.133-38.262
		c-4.1-15.106-8.25-30.198-12.455-45.274c-0.211-0.756-1.156-1.308-1.76-1.955c-0.389,0.671-0.992,1.299-1.135,2.019
		c-3.972,20.042-7.787,40.116-11.873,60.134c-2.109,10.335-4.367,20.66-7.136,30.833
		C2201.99,345.38,2198.714,354.308,2195.412,364.483z"/>
	<path fill="#FEFEFE" d="M1551.192,592.094c-2.493-29.566,12.54-48.127,33.282-66.291c19.108-16.729,39.493-31.377,65.39-36.049
		c6.078-1.098,11.866-3.998,17.957-4.783c8.805-1.133,17.768-1.004,26.639-1.717c0.732-0.059,2.173-3.064,1.767-3.658
		c-3.282-4.771-6.646-9.549-10.518-13.844c-13.589-15.08-24.269-31.797-30.199-51.357c-3.927-12.949-8.251-25.789-11.765-38.849
		c-1.24-4.61,0.018-9.852-0.94-14.587c-3.01-14.866-8.022-29.483-9.469-44.466c-1.731-17.951-0.875-35.517,9.303-52.524
		c17.221-28.782,42.267-43.868,74.003-50.756c17.507-3.801,32.743-11.494,40.501-29.47c4.854-11.249,11.505-21.779,15.72-33.231
		c3.559-9.673,4.244-20.374,7.33-30.267c0.972-3.115,5.601-7.17,8.554-7.167c6.803,0.005,14.123,2.494,11.974,11.762
		c-4.321,18.646-6.857,37.787-17.166,54.739c-9.764,16.058-20.779,30.75-35.918,42.129c-0.523,0.393,0.04,3.736,0.951,4.284
		c4.513,2.713,9.304,4.968,14.015,7.348c18.191,9.196,24.435,26.387,27.857,44.395c5.02,26.402-4.287,50.425-18.062,71.923
		c-11.679,18.225-27.699,34.674-51.276,34.057c-14.768-0.387-29.366-7.271-44.043-11.235c-1.807-0.487-3.624-0.941-5.438-1.411
		c0.18,1.676-0.01,3.498,0.59,5.007c9.982,25.106,17.921,51.208,37.31,71.54c5.477,5.742,8.552,13.75,13.944,19.598
		c7.638,8.281,15.938,16.117,24.799,23.066c12.562,9.852,27.307,17.277,38.587,28.324c20.791,20.361,33.135,46.367,40.169,74.359
		c3.281,13.053-1.258,26.076-8.771,37.229c-8.896,13.209-17.373,27.041-28.263,38.477c-11.095,11.652-24.468,21.322-37.619,30.783
		c-21.093,15.174-45.967,18.986-70.99,19.129c-29.984,0.172-57.211-8.625-80.678-28.756c-18.894-16.209-34.487-34.635-43.354-57.752
		c-4.47-11.658-4.806-20.842-7.424-33.209C1550.67,598.78,1550.462,592.176,1551.192,592.094z M1557.718,594.004
		c1.491,11.029,1.087,22.762,4.861,32.945c8.562,23.107,22.888,42.729,42.584,57.984c12.562,9.73,25.456,19.043,41.446,22.367
		c15.378,3.195,30.67,4.807,46.667,3.459c26.102-2.197,49.207-10.773,70.12-26.088c19.562-14.326,33.756-33.266,46.62-53.486
		c9.373-14.732,13.452-29.887,6.018-46.543c-4.293-9.617-9.302-18.92-13.579-28.543c-9.432-21.217-25.223-36.088-44.686-48.275
		c-16.119-10.094-32.942-19.848-43.333-36.961c-3.25-5.355-7.106-10.354-10.808-15.424c-11.218-15.373-24.16-29.5-29.066-48.895
		c-2.748-10.855-8.626-20.887-12.007-31.632c-1.073-3.412,0.42-8.596,2.584-11.667c1.122-1.588,6.588-1.194,9.557-0.159
		c5.335,1.861,10.125,5.225,15.388,7.354c19.18,7.765,38.911,12.255,56.695-2.023c8.94-7.179,16.668-16.674,22.707-26.498
		c14.038-22.831,21.603-46.519,10.182-73.885c-6.891-16.511-16.156-27.914-33.382-33.145c-4.093-1.242-7.829-5.203-10.496-8.822
		c-1.077-1.462,0.239-6.457,2.038-7.958c7.21-6.017,15.686-10.597,22.515-16.974c20.945-19.561,28.531-45.436,32.315-72.743
		c0.278-2.014-2.416-4.441-3.729-6.676c-1.519,1.639-3.855,3.037-4.415,4.956c-2.682,9.195-4.023,18.863-7.469,27.732
		c-4.396,11.31-9.91,22.254-15.735,32.923c-8.689,15.921-20.844,27.622-39.568,31.582c-10.636,2.249-21.271,5.398-31.241,9.687
		c-17.496,7.527-32.247,19.425-41.417,36.107c-10.642,19.357-10.431,40.618-5.834,61.867c2.019,9.327,4.46,18.583,5.979,27.991
		c1.295,8.022,0.57,16.454,2.49,24.273c2.675,10.894,6.825,21.445,10.629,32.039c5.325,14.828,12.239,28.738,23.131,40.477
		c6.911,7.447,13.213,15.457,19.833,23.176c5.244,6.111,2.865,15.047-5.15,16.52c-9.193,1.689-18.701,1.6-27.963,3.002
		c-27.87,4.229-53.425,13.832-75.403,32.217C1575.479,544.088,1558.197,563.875,1557.718,594.004z"/>
	<path fill="none" d="M1685.346,504.094c18.507,4.023,37.507,6.609,55.311,12.697c8.451,2.889,14.955,12.129,21.74,19.08
		c10.502,10.764,20.231,22.283,30.768,33.014c9.458,9.631,6.479,20.916,5.727,32.166c-2.375,35.424-24.791,56.303-53.285,71.938
		c-15.892,8.719-33.371,13.668-51.938,13.664c-4.836,0-9.868,0.916-14.472,2.43c-19.916,6.545-35.861-2.221-51.498-12.676
		c-19.938-13.328-29.056-34.465-39.225-54.734c-4.135-8.246-8.94-16.875-10.056-25.756c-1.937-15.434,3.78-29.607,13.102-42.086
		c5.366-7.184,10.507-14.6,16.474-21.262c9.685-10.814,23.279-13.635,36.695-16.848c10.817-2.59,21.416-6.092,32.152-9.047
		c2.622-0.721,3.314-1.221,6.021-1.643C1682.992,504.608,1685.211,504.518,1685.346,504.094z"/>
	<path fill="none" d="M1767.07,286.31c-3.383,19.958-4.846,38.05-19.316,51.069c-12.65,11.381-28.285,16.081-44.671,17.87
		c-4.328,0.472-9.38-2.435-13.573-4.748c-6.637-3.661-14.177-6.991-18.863-12.545c-5.703-6.763-10.503-15.271-12.637-23.79
		c-2.188-8.739-1.029-18.418-0.607-27.655c0.138-3.055,2.105-6.309,3.968-8.957c10.879-15.473,25.196-27.194,41.515-36.434
		c6.826-3.865,13.469-2.208,20.547,1.326c15.378,7.676,28.887,17.433,38.801,31.493
		C1765.062,277.953,1765.956,283.334,1767.07,286.31z"/>
	<path fill="none" d="M1231.439,375.684c4.093-0.283,8.404,0.13,12.211-1.066c3.062-0.962,7.5-3.544,7.896-5.969
		c1.977-12.098,2.463-24.431,4.15-36.588c2.203-15.877,4.234-31.851,7.792-47.451c5.37-23.555,12.079-46.802,18.032-70.228
		c1.626-6.397,2.814-12.928,3.786-19.459c1.177-7.914,7.623-4.422,11.727-5.255c1.329-0.27,4.472,3.213,5.09,5.448
		c4.417,15.978,8.151,32.145,12.583,48.117c4.224,15.221,10.185,30.047,13.308,45.465c4.654,22.985,7.346,46.361,11.155,69.524
		c2.09,12.707,5.266,25.247,7.06,37.987c3.493,24.813,7.676,49.387,16.257,73.083c8.779,24.246,17.766,48.459,25.25,73.115
		c5.17,17.023,7.977,34.77,11.674,52.229c0.186,0.877-1.639,3.078-1.813,3.002c-2.396-1.025-6.098-1.852-6.729-3.676
		c-3.661-10.574-6.166-21.547-9.853-32.109c-8.746-25.064-18.272-49.861-26.807-74.996c-4.434-13.057-7.478-26.586-11.059-39.926
		c-4.606-17.166-8.876-34.424-13.79-51.499c-2.278-7.918-9.42-5.519-14.96-5.255c-10.889,0.521-21.743,1.834-32.634,2.235
		c-4.536,0.167-9.211-1.962-13.663-1.505c-2.674,0.274-6.914,3.237-7.26,5.483c-3.987,25.84-7.968,51.711-10.723,77.706
		c-2.528,23.861-2.853,47.963-5.475,71.812c-2.102,19.117-6.526,37.969-9.26,57.033c-1.349,9.418-1.266,19.047-1.703,28.588
		c-0.233,5.074-2.067,8.691-7.662,6.893c-1.198-0.385-1.755-4.906-1.483-7.398c2.949-27.141,6.321-54.234,9.179-81.385
		c2.86-27.17,4.776-54.449,8.02-81.57c2.923-24.445,7.009-48.752,10.73-73.098c1.784-11.67,0.894-12.175-10.152-9.022
		c-5.542,1.581-11.741,1.151-17.625,1c-1.269-0.033-3.79-3.279-3.448-4.173c1.014-2.659,2.871-5.211,5.003-7.138
		c1.012-0.914,3.394-0.312,5.154-0.398C1231.415,375.388,1231.428,375.536,1231.439,375.684z M1280.05,255.111
		c0.632,0.083,1.266,0.165,1.897,0.248c-2.015,11.129-3.895,22.286-6.071,33.384c-4.927,25.12-10.11,50.19-14.954,75.326
		c-1.642,8.521,1.553,11.112,9.979,9.827c8.902-1.357,17.894-2.617,26.874-2.858c8.118-0.217,16.28,0.929,24.413,1.607
		c5.457,0.455,11.494-6.116,10.246-11.731c-2.164-9.742-4.567-19.431-7-29.11c-4.174-16.616-8.291-33.249-12.717-49.799
		c-5.312-19.858-10.729-39.694-16.65-59.376c-0.77-2.559-4.562-5.046-7.41-5.765c-1.299-0.328-5.053,3.544-5.376,5.839
		C1281.761,233.444,1281.05,244.298,1280.05,255.111z"/>
	<path fill="none" d="M1288.384,254.57c-0.357-6.648-0.866-13.679-1.009-20.717c-0.029-1.472,1.297-2.973,2-4.46
		c0.764,1.288,1.851,2.484,2.246,3.876c4.584,16.16,9.411,32.261,13.491,48.551c6.359,25.392,12.255,50.903,18.064,76.428
		c0.29,1.271-2.003,4.457-3.256,4.55c-15.551,1.14-31.132,1.87-46.704,2.708c-5.918,0.318-5.007-3.746-4.337-7.181
		c2.457-12.593,5.306-25.112,7.653-37.724C1280.597,298.762,1284.396,276.875,1288.384,254.57z"/>
	<path fill="none" d="M2195.412,364.483c3.303-10.175,6.578-19.103,9.068-28.247c2.766-10.172,5.024-20.498,7.133-30.833
		c4.086-20.019,7.902-40.091,11.873-60.134c0.143-0.72,0.748-1.35,1.137-2.021c0.604,0.647,1.547,1.199,1.76,1.956
		c4.203,15.077,8.354,30.168,12.453,45.274c3.455,12.735,7.197,25.407,10.135,38.262c2.613,11.435,4.414,23.062,6.316,34.646
		c0.564,3.43,0.414,7.011,0.209,10.5c-0.035,0.602-2.25,1.805-3.033,1.527c-17.201-6.101-34.826-8.767-53.082-7.395
		C2198.173,368.112,2196.783,365.761,2195.412,364.483z"/>
</g>
<g>
	<path fill="#FEFEFE" d="M832.78,228.057c0.433-14.635,9.901-24.844,22.799-24.579c9.967,0.207,25.37,15.769,25.188,25.449
		c-0.204,10.938-13.878,31.805-20.814,31.771C847.643,260.636,832.36,242.276,832.78,228.057z"/>
	<path fill="#FEFEFE" d="M747.396,211.553c0.733-14.051,8.129-21.931,20.388-21.722c11.087,0.191,24.548,16.755,22.729,29.584
		c-1.499,10.582-2.467,23.429-16.475,25.146C762.766,245.941,746.705,224.818,747.396,211.553z"/>
	<path fill="#FEFEFE" d="M1178.903,422.057c-23.387-16.197-47.193-31.6-75.017-39.46c-2.271-0.642-4.885-3.375-5.565-5.665
		c-1.64-5.509-1.521-11.573-3.375-16.98c-4.304-12.557-6.132-28.128-14.744-36.604c-20.042-19.726-56.322-20.878-77.938,0.571
		c-14.116,14.005-26.954,29.404-39.412,44.94c-13.308,16.595-25.238,34.286-38.292,51.095c-6.144,7.916-12.652,7.889-18.743,0.188
		c-7.247-9.166-14.538-18.502-20.209-28.661c-10.485-18.79-20.15-38.065-29.5-57.457c-7.578-15.718-27.621-24.338-39.629-14.864
		c-10.008,7.896-20.981,16.654-26.613,27.566c-10.943,21.204-18.377,44.213-27.381,66.426c-4.679,11.539-7.465,23.877-22.19,28.541
		c-15.279,4.838-39.544-1.803-47.604-14.773c-13.97-22.484-11.188-45.038,0.944-66.679c6.105-10.893,7.417-21.882,5.103-33.111
		c-1.006-4.87-6.459-11.693-10.655-12.292c-4.974-0.71-12.278,3.06-15.796,7.229c-3.692,4.377-4.054,11.542-5.967,17.457
		c-0.577,1.786-1.475,3.468-2.226,5.198c-1.078-1.451-2.352-2.793-3.205-4.365c-16.601-30.625-58.753-22.364-74.374-3.827
		c-13.963,16.57-25.877,35.771-28.094,59.217c-1.63,17.234-5.11,34.138,6.536,49.361c5.944,7.77-0.897,8.9-5.587,9.371
		c-7.052,0.709-14.297,0.412-21.364-0.35c-3.651-0.393-8.812-1.713-10.334-4.334c-6.664-11.463-12.773-23.322-18.107-35.467
		c-9.945-22.655-18.708-45.837-28.948-68.354c-6.351-13.958-31.635-22.485-46.127-17.646c-19.902,6.642-32.972,19.488-38.707,39.745
		c-0.29,1.025-1.451,1.803-2.21,2.697c-0.367-1.007-0.796-1.995-1.092-3.021c-2.925-10.149-5.127-20.576-8.932-30.381
		c-3.973-10.24-22.649-18.721-30.277-13.132c-15.199,11.135-28.906,23.488-31.668,44.547c-1.645,12.536-7.399,24.536-11.322,36.771
		c-0.364,1.141-0.937,2.221-1.232,3.375c-4.914,19.201-17.337,24.92-34.149,15.707c-0.868-0.475-1.771-0.887-2.681-1.275
		c-15.961-6.811-21.453-27.553-12.932-42.436c6.651-11.618,13.249-24.249,15.453-37.185c2.769-16.254,2.517-33.74-5.833-48.939
		c-3.082-5.61-9.583-11.431-15.493-12.723c-4.571-1-11.706,3.849-15.855,7.959c-10.152,10.064-10.592,24.065-13.963,37.201
		c-6.452,25.148-8.538,49.974-1.313,74.885c1.967,6.779-0.382,10.381-4.171,14.135c-3.993,3.953-8.64,7.242-12.977,10.85
		c-9.327,7.756-18.944,13.447-31.173,5.594c-1.432-0.92-3.898-0.07-5.709-0.617c-1.672-0.504-3.848-1.463-4.433-2.812
		c-0.542-1.254,0.288-3.615,1.266-4.934c9.807-13.211,19.492-26.531,29.754-39.385c14.682-18.387,20.829-39.822,24.233-62.559
		c2.545-17.003-4.342-23.126-20.298-24.579c-27.477-2.503-62.176,21.518-70.465,47.869c-4.032,12.819-8.688,25.581-11.135,38.728
		c-3.294,17.688-6.613,35.631,4.289,52.737c3.117,4.893,4.714,12.828,3.076,18.158c-2.184,7.1-7.681,13.465-12.685,19.359
		c-10.325,12.156-20.773,24.209-31.295,36.197c2.974,1.252,5.957,2.553,8.989,3.902c3.546,1.549,8.151,0.324,12.127,0.355
		c-0.166-2.939-0.015-6.273,1.453-8.279c9.931-13.58,20.349-26.811,30.846-39.965c1.088-1.361,4.306-2.562,5.655-1.939
		c19.118,8.84,35.725,0.977,50.996-8.906c12.682-8.205,23.583-19.135,35.609-28.418c1.414-1.092,6.177-0.336,7.341,1.156
		c7.219,9.254,13.572,19.182,20.754,28.467c9.841,12.727,30.526,19.637,44.23,11.814c8.781-5.012,17.02-14.762,20.633-24.244
		c7.16-18.789,11.233-38.797,15.979-58.445c1.645-6.807,1.767-14.029,2.124-21.086c0.726-14.254,11.673-21.087,21.18-28.449
		c5.351-4.142,11.273-0.604,12.768,5.298c3.432,13.547,6.555,27.292,8.172,41.148c2.491,21.362,3.213,42.933,5.752,64.29
		c0.393,3.307,6.141,7.793,9.988,8.477c7.146,1.268,5.959-4.754,5.813-9.566c-0.869-28.637-0.079-57.327,11.553-83.962
		c6.562-15.019,17.883-26.859,36.64-21.915c6.199,1.635,12.105,9.89,15.292,16.495c13.349,27.663,13.502,58.75,21.422,87.794
		c6.626,24.297,31.503,48.592,59.344,46.908c12.633-0.766,26.219-5.949,36.898-12.918c9.661-6.309,18.407-10.375,29.896-10.436
		c22.664-0.119,35.722-15.086,46.961-32.281c1.032-1.582,1.898-3.271,2.841-4.912c1.017,1.57,2.289,3.033,3.006,4.729
		c8.179,19.271,19.747,35.703,40.767,41.869c7.303,2.143,16.061,1.416,23.714-0.156c16.67-3.42,27.865-13.213,37.394-28.295
		c12.819-20.289,14.891-42.84,20.802-64.691c5.675-20.985,14.652-39.896,33.166-52.995c5.963-4.22,9.154,0.457,11.213,3.64
		c4.884,7.546,9.369,15.566,12.573,23.946c10.398,27.189,19.776,54.772,30.315,81.903c4.88,12.561,23.858,20.73,39.293,19.369
		c17.336-1.529,27.976-10.951,34.694-26.373c6.235-14.311,15.147-27.77,19.29-42.608c6.812-24.406,24.871-40.032,40.749-57.152
		c10.898-11.753,26.807-15.888,42.691-12.658c5.522,1.122,12.92,7.518,14.071,12.704c2.653,11.941,2.847,24.673,2.049,36.955
		c-0.181,2.795-8.174,6.469-13,7.333c-18.958,3.394-37.01,7.46-52.648,20.466c-14.444,12.008-7.276,36.235,5.149,45.133
		c23.259,16.654,44.309,6.619,65.621-3.035c17.983-8.145,27.586-22.273,28.582-42.313c0.059-1.167,6.562-3.791,8.687-2.795
		c14.624,6.858,29.277,13.829,43.133,22.083c8.122,4.838,16.179,9.965,23.837,15.566c3.582-1.818,7.28-3.498,10.806-5.467
		C1184.834,426.256,1181.891,424.125,1178.903,422.057z M155.577,414.383c-3.318,3.908-5.703,2.33-6.314-1.436
		c-3.908-24.056-13.138-48.324-2.598-72.39c3.501-7.989,11.465-14.847,18.897-20.078c8.699-6.12,19.047-9.896,28.679-14.689
		c8.854,2.275,11.789,6.212,10.524,13.636c-4.407,25.865-13.252,50.026-28.773,71.311
		C169.877,399.122,162.318,406.442,155.577,414.383z M251.235,365.758c-0.315,1.056-1.326,1.902-2.014,2.846
		c-0.385-0.517-4.78-4.349-5.119-4.842c-8.391-12.23-8.77-21.594-6.743-35.729c3.097-9.072,5.448-18.462,9.491-27.056
		c3.64-7.739,9.374-6.655,11.216,1.146c2.206,9.337,4.14,19.395,2.936,28.719C259.47,342.706,254.702,354.156,251.235,365.758z
		 M575.4,436.692c-10.039-23.607-6.272-46.532,6.203-68.066c5.798-10.007,12.134-20.334,20.495-28.059
		c9.974-9.217,23.448-10.635,36.839-7.607c7.828,1.769,13.136,13.374,13.109,27.53c0,18.686-7.003,34.419-21.198,46.467
		c-14.309,12.143-29.294,23.486-43.859,35.33C579,448.784,576.94,440.313,575.4,436.692z M619.784,454.495
		c-3.173,1.283-6.958,1.053-10.46,1.527c1.957-2.418,4.122-4.699,5.82-7.285c2.752-4.188,4.864-8.83,7.853-12.826
		c5.546-7.42,11.656-14.418,17.302-21.768c8.409-10.943,16.621-22.041,23.191-30.78C654.22,407.764,653.49,440.87,619.784,454.495z
		 M1059.768,393.789c-10.876,11.127-10.238,19.258-24.272,29.762c-3.505,3.016-17.674,8.863-19.345,7.654
		c-4.172-3.021-6.662-8.367-8.722-11.238c0.159-8.34,12.629-19.801,20.862-21.668c9.901-2.247,19.763-4.671,29.643-7.018
		c1.059-0.252,2.118-0.499,3.18-0.748C1060.679,391.63,1060.53,393.008,1059.768,393.789z"/>
</g>
<path fill="#FEFEFE" d="M3248.682,409.913c-1.384-2.77-3.46-4.844-8.305-4.152c0.745-1.49,0.282-2.781-0.624-4.195
	c-14.182,8.475-28.91,16.377-44.236,22.359c-22.616,8.826-46.752,12.061-70.61,6.301c-23.097-5.572-45.987-12.576-68.203-20.982
	c-10.533-3.988-19.386-12.563-28.67-19.501c-1.006-0.751-0.625-4.988,0.498-6.692c7.789-11.812,17.28-22.708,23.586-35.228
	c5.57-11.063,11.248-23.772,3.223-36.385c-1.783-2.8-6.709-5.538-9.857-5.204c-15.828,1.68-28.69,8.352-35.041,24.239
	c-3.14,7.856-7.725,15.271-9.852,23.36c-2.346,8.925-3.366,18.378-3.551,27.63c-0.129,6.488-1.584,9.86-7.959,12.634
	c-38.709,16.849-79.028,22.552-120.773,18.081c-11.837-1.266-23.652-7.186-35.113-6.297c-12.719,0.988-21.04-5.113-30.268-10.69
	c-11.562-6.99-10.764-11.155-1.485-21.243c8.171-8.883,14.687-19.52,20.678-30.092c3.879-6.842,6.229-14.817,7.761-22.581
	c0.58-2.946-2.352-8.915-4.896-9.736c-9.75-3.144-20.003-6.548-30.049-6.491c-12.926,0.072-17.171,12.059-22.159,21.815
	c-7.793,15.238-5.833,31.136-3.101,47.119c0.299,1.746-0.385,4.845-1.586,5.482c-14.759,7.835-29.202,16.629-44.73,22.541
	c-15.268,5.812-31.602,8.982-47.624,12.607c-11.318,2.561-22.93,3.797-34.358,5.891c-22.724,4.162-43.649-1.326-63.559-11.818
	c-13.404-7.062-27.926-12.938-39.488-22.361c-20.309-16.548-34.121-39.07-40.495-64.114c-2.916-11.461,2.556-25.368,5.372-37.905
	c4.01-17.832,7.484-36.048,14.103-52.959c8.147-20.819,5.626-42.192,7.196-63.352c0.23-3.097-3.043-8.153-5.983-9.509
	c-16.58-7.647-33.998-1.144-43.878,15.766c-9.569,16.376-12.927,34.298-13.087,53.071c-0.112,13.041-2.433,26.283-0.818,39.062
	c2.192,17.347,6.335,34.592,11.271,51.403c4.114,14.014,0.093,26.151-7.944,35.889c-14.093,17.076-29.368,33.423-45.782,48.269
	c-16.271,14.719-45.118,20.893-66.473,3.912c0,5.24,0,10.482,0,15.725c0.755,0.557,1.519,1.105,2.288,1.639
	c19.854,13.748,55.125,5.908,74.115-11.699c18.081-16.768,34.406-35.462,51.06-53.714c3.396-3.722,3.604-3.535,5.775,0.636
	c6.612,12.705,12.551,26.028,20.989,37.46c19.787,26.802,41.055,52.226,76.089,60.308c24.711,5.699,49.837,8.48,74.066,1.146
	c23.004-6.961,45.321-16.797,67.007-27.299c16.428-7.957,31.151-19.365,47.153-28.309c4.171-2.332,11.89-10.353,14.862,2.375
	c0.212,0.91,1.655,1.494,2.446,2.309c10.864,11.178,23.231,20.104,37.204,27.225c17.134,8.73,34.675,16.449,54.108,13.633
	c18.458-2.674,36.735-7.188,54.767-12.094c27.625-7.52,54.94-16.051,78.562-33.334c1.974-1.443,7.082-0.926,9.27,0.676
	c7.853,5.758,14.379,13.566,22.68,18.424c18.694,10.941,38.024,20.828,57.324,30.697c29.562,15.115,58.961,6.555,87.041-3.672
	c17.44-6.354,33.314-17.49,49.133-27.658c3.808-2.447,7.5-5.084,11.127-7.824C3248.908,411.614,3248.886,410.733,3248.682,409.913z
	 M2487.908,281.681c-0.805-1.446-2.121-2.821-2.335-4.35c-2.414-17.367-4.659-34.756-6.909-51.838
	c0.896-10.187,0.947-20.098,2.82-29.651c2.176-11.088,8.47-20.273,18.92-25.227c4.749-2.251,10.798-2.028,9.55,6.198
	c-2.907,19.174-5.815,38.363-9.443,57.408c-2.737,14.374-6.544,28.546-10.014,42.774
	C2490.089,278.668,2488.792,280.124,2487.908,281.681z M2782.114,358.445c-0.177-1.365-0.255-2.742-0.573-6.256
	c0.443-0.744,0.104-3.209,1.365-5.51c0.502-0.919,1.354-6.014,1.463-6.788c1.193-8.481,2.959-11.672,6.562-18.668
	c3.045-5.915,16.968-8.532,21.957-2.946c2.644,2.957,2.062,11.466-0.282,15.675c-5.725,10.28-12.806,19.943-20.318,29.046
	C2785.242,371.533,2783.031,365.553,2782.114,358.445z M3018.525,372.696c-0.748,1.089-1.599,2.107-2.399,3.158
	c-0.812-1.253-2.002-2.405-2.379-3.778c-5.142-18.699,8.024-46.349,26.053-54.229c1.684-0.735,7.466-0.842,10.085,2.122
	c4.07,3.871-14.417,26.138-21.014,37.445C3025.779,362.715,3022.011,367.626,3018.525,372.696z"/>
</svg>
