<?xml version="1.0" encoding="utf-8"?>
<!-- Generator: Adobe Illustrator 16.0.0, SVG Export Plug-In . SVG Version: 6.00 Build 0)  -->
<!DOCTYPE svg PUBLIC "-//W3C//DTD SVG 1.1 Tiny//EN" "http://www.w3.org/Graphics/SVG/1.1/DTD/svg11-tiny.dtd">
<svg version="1.1" baseProfile="tiny" id="Layer_1" xmlns="http://www.w3.org/2000/svg" xmlns:xlink="http://www.w3.org/1999/xlink"
	 x="0px" y="0px" width="3389.322px" height="797.841px" viewBox="0 0 3389.322 797.841" xml:space="preserve">
<g>
	<path fill="#010101" d="M1807.208,589.533c-0.521,17.329-2.144,34.081-11.735,49.576c-10.53,17.013-24.776,29.318-41.708,39.195
		c-19.666,11.471-40.791,17.301-63.56,18.148c-10.833,0.405-21.591,3.246-32.413,3.455c-12.913,0.25-22.894-7.793-33.398-14.221
		c-12.954-7.926-22.605-18.825-29.26-32.112c-9.128-18.23-18.688-36.453-25.292-55.632c-2.498-7.249,1.59-17.571,4.63-25.768
		c8.373-22.577,21.683-41.916,42.73-54.497c6.735-4.026,14.951-5.73,22.643-7.966c11.333-3.294,22.674-6.859,34.26-8.896
		c9.014-1.584,18.689-2.613,27.568-1.045c15.33,2.705,31.147,5.74,45.07,12.252c9.647,4.511,16.73,14.832,24.463,23.024
		c10.214,10.818,20.564,21.618,29.611,33.381c4.335,5.635,3.251,10.831,6.022,17.67
		C1806.109,586.362,1807.938,589.268,1807.208,589.533z M1685.346,504.095c-0.136,0.424-2.355,0.514-2.489,0.937
		c-2.706,0.421-3.397,0.92-6.021,1.643c-10.736,2.954-21.333,6.456-32.152,9.046c-13.417,3.213-27.011,6.032-36.696,16.847
		c-5.967,6.663-11.107,14.077-16.472,21.262c-9.321,12.478-15.037,26.652-13.102,42.086c1.114,8.88,5.92,17.51,10.056,25.755
		c10.168,20.268,19.287,41.406,39.224,54.734c15.637,10.455,31.581,19.221,51.497,12.675c4.604-1.514,9.636-2.43,14.471-2.429
		c18.57,0.004,36.05-4.945,51.94-13.664c28.494-15.635,50.911-36.514,53.285-71.937c0.753-11.25,3.731-22.536-5.728-32.167
		c-10.535-10.73-20.264-22.25-30.767-33.013c-6.784-6.952-13.289-16.191-21.74-19.08
		C1722.854,510.704,1703.854,508.118,1685.346,504.095z"/>
	<path fill="#010101" d="M1558.625,190.138c1.25,28.995,1.818,53.296,4.451,82.164c2.115,23.201,7.759,46.059,10.728,69.211
		c2.029,15.818,1.626,31.935,3.244,47.823c2.467,24.254,6.134,48.389,8.488,72.652c0.981,10.121,0.633,20.538-0.688,30.614
		c-0.406,3.1-5.712,6.155-9.387,8.027c-2.56,1.303-6.201,0.925-9.296,0.632c-5.14-0.488-8.99-0.697-12.945-6.909
		c-14.295-22.466-30.558-43.683-46.155-65.317c-14.431-20.016-29.699-39.484-43.097-60.167c-5.688-8.781-7.122-20.219-11.237-30.14
		c-6.653-16.04-13.917-31.827-20.97-47.7c-0.295-0.666-1.069-1.119-1.62-1.671c-0.112,0.936-0.485,1.929-0.295,2.798
		c3.177,14.53,6.809,28.973,9.555,43.581c3.222,17.147,6.054,34.388,8.389,51.678c3.248,24.052,5.983,48.175,8.73,72.292
		c1.63,14.306,2.549,28.698,4.355,42.98c2.03,16.067,5,32.018,6.979,48.092c1.29,10.474,1.497,21.081,2.273,31.621
		c0.553,7.509,2.281,15.13,1.417,22.458c-0.411,3.476-5.633,8.887-8.716,8.915c-3.896,0.035-10.678-3.998-11.271-7.192
		c-2.77-14.956-3.46-30.283-5.642-45.368c-1.693-11.702-5.02-23.169-6.669-34.873c-2.172-15.396-3.189-30.949-5.097-46.386
		c-5.255-42.536-10.393-85.09-16.201-127.553c-4.584-33.532-10.527-66.881-14.982-100.429c-1.78-13.404-1.858-27.152-1.261-40.681
		c0.178-4.029,4.464-9.398,8.305-11.405c6.538-3.417,10.608,1.065,13.131,7.394c6.267,15.716,12.754,31.346,19.352,46.926
		c7.294,17.222,14.337,34.573,22.354,51.458c9.271,19.53,19.361,38.677,29.318,57.876c13.203,25.46,28.319,49.473,50.047,68.883
		c5.576,4.98,9.089,12.271,13.541,18.505c0.457,0.639,0.858,1.316,1.285,1.977c0.154-0.86,0.575-1.771,0.416-2.57
		c-1.154-5.842-2.696-11.618-3.615-17.494c-3.29-21.053-7.102-42.059-9.387-63.226c-4.016-37.197-8.168-74.441-10.155-111.778
		c-1.683-31.618-4.703-63.472,1.387-95.081c0.288-1.498-1.026-3.252-0.954-4.858c0.08-1.754,0.406-4.019,1.543-5.061
		c1.207-1.106,3.81-1.897,5.255-1.356c16.732,6.25,16.733,6.353,16.796,24.425c0.011,3.133-1.264,5.477-1.314,8.611
		C1558.615,184.531,1559.022,190.124,1558.625,190.138z M1551.984,207.21c0.313-0.068-0.316-2.772-0.001-2.84
		c0.195-12.153,0.665-24.315,0.289-36.451c-0.058-1.83-3.991-3.645-6.329-5.159c-0.276-0.179-2.542,1.512-2.659,2.485
		c-0.751,6.235-1.706,12.523-1.585,18.773c0.483,25.062,0.787,50.146,2.198,75.164c1.566,27.782,3.424,55.602,6.713,83.22
		c3.379,28.377,8.654,56.53,13.076,84.784c2.199,14.045,4.414,28.09,6.432,42.163c0.239,1.673-0.394,4.836-1.185,5.032
		c-2.144,0.531-4.819,0.352-6.847-0.541c-1.571-0.69-2.894-2.705-3.625-4.428c-6.627-15.622-17.194-28.642-29.439-39.738
		c-17.946-16.263-28.326-37.544-40.437-57.536c-10.483-17.307-18.585-36.114-27.028-54.583c-9.747-21.32-18.733-42.988-28.016-64.52
		c-6.104-14.159-12.101-28.363-18.305-42.476c-0.484-1.102-2.236-1.646-3.397-2.448c-1.029,1.943-3.092,3.978-2.931,5.816
		c2.369,26.888,4.484,53.818,7.798,80.597c2.857,23.085,7.379,45.958,10.753,68.986c2.499,17.047,4.524,34.168,6.421,51.296
		c2.436,21.992,4.616,44.013,6.714,66.039c0.554,5.797-0.277,11.777,0.7,17.471c3.511,20.468,7.863,40.794,11.23,61.284
		c2.296,13.962,3.417,28.116,5.259,42.158c0.183,1.395,1.724,2.61,2.636,3.908c0.763-1.259,2.169-2.507,2.191-3.779
		c0.207-11.757,1.19-23.621,0.006-35.256c-2.645-25.979-6.529-51.829-9.673-77.76c-3.023-24.939-5.353-49.968-8.726-74.856
		c-2.943-21.716-6.612-43.346-10.505-64.916c-5.19-28.748-11.043-57.375-16.209-86.125c-0.596-3.316,1.375-7.094,2.157-10.657
		c1.831,1.21,4.517,2.001,5.352,3.701c5.046,10.263,9.315,20.915,14.502,31.101c14.879,29.226,22.265,61.875,40.584,89.473
		c10.034,15.117,19.984,30.446,31.591,44.327c18.292,21.876,35.462,44.453,50.874,68.429c1.39,2.16,5.269,4.067,7.741,3.798
		c2.379-0.259,6.069-3.291,6.343-5.462c1.094-8.708,1.891-17.61,1.295-26.339c-0.862-12.637-3.463-25.147-4.539-37.779
		c-1.75-20.565-2.074-41.277-4.459-61.756c-2.734-23.49-7.854-46.705-10.491-70.203
		C1555.199,262.685,1554.386,236.228,1551.984,207.21z"/>
	<path fill="#010101" d="M1844.306,525.101c-3.097-31.18-6.836-64.11-9.444-97.129c-1.236-15.648,0.058-31.479-0.472-47.203
		c-0.447-13.267-1.568-26.532-2.943-39.74c-1.661-15.978-3.752-31.917-5.94-47.834c-2.022-14.695-4.801-29.292-6.561-44.014
		c-2.548-21.316,6.729-33.334,27.971-38.952c7.285-1.926,13.921-6.185,21.013-8.979c20.373-8.029,40.976-15.499,61.174-23.937
		c7.857-3.282,14.836-8.638,22.3-12.903c2.715-1.551,5.611-2.856,8.555-3.898c1.078-0.38,3.668,0.407,3.659,0.526
		c-0.509,7.192,8.938,13.299,2.61,20.907c-2.003,2.407-5.214,3.791-7.81,5.726c-19.669,14.67-43.805,16.751-66.171,23.973
		c-13.8,4.457-27.075,11.017-39.9,17.906c-17.896,9.613-15.045,5.202-11.051,26.551c4.628,24.742,7.915,49.731,12.027,74.574
		c1.158,6.995,3.099,13.866,4.883,20.742c0.164,0.636,1.758,1.189,2.738,1.283c8.32,0.784,16.651,1.451,24.979,2.156
		c8.513,0.719,17.049,2.248,25.53,1.979c13.8-0.437,27.594-1.754,41.333-3.237c16.841-1.817,33.615-4.246,50.433-6.293
		c6.558-0.798,8.892,3.854,10.577,8.927c1.862,5.609,0.233,9.691-4.866,13.15c-10.606,7.196-22.197,5.643-33.977,5.49
		c-24.18-0.315-48.38-0.041-72.553,0.647c-14.56,0.414-29.098,1.924-43.604,3.376c-1.469,0.147-3.88,3.406-3.747,5.047
		c1.084,13.245,3.033,26.422,4.007,39.672c1.03,14.021,0.862,28.132,1.968,42.146c1.553,19.653,3.85,39.246,5.733,58.873
		c1.074,11.182,10.945,10.471,17.794,12.081c24.7,5.806,49.583,8.452,75.164,4.519c16.808-2.584,34.068-2.61,51.141-2.974
		c11.406-0.244,15.786,7.99,10.323,17.878c-2.463,4.458-4.733,9.062-7.658,13.199c-1.14,1.614-3.82,2.975-5.825,3.011
		c-17.182,0.316-34.389,0.843-51.552,0.241c-18.784-0.66-37.569-2.033-56.272-3.906c-11.769-1.179-23.586-3.079-35.029-6.032
		c-16.215-4.185-19.932-9.856-20.676-27.444C1844.051,532.456,1844.232,529.692,1844.306,525.101z M1928.701,548.567
		c-0.039-0.306-2.699,0.856-2.738,0.55c-6.649-0.519-13.355-0.664-19.935-1.649c-8.854-1.325-17.62-3.257-26.408-5.005
		c-10.226-2.034-19.635-4.893-20.852-17.758c-0.89-9.409-2.594-18.744-3.463-28.154c-1.075-11.621-1.743-23.281-2.441-34.933
		c-0.932-15.551-1.42-31.134-2.669-46.657c-1.081-13.45-3.044-26.829-4.34-40.265c-0.136-1.406,1.534-4.25,2.5-4.311
		c16.649-1.047,33.312-2.039,49.986-2.478c20.732-0.547,41.486-0.328,62.218-0.922c13.64-0.392,27.273-1.427,40.86-2.709
		c2.218-0.209,4.177-3.193,6.254-4.895c-2.508-1.5-5.02-4.277-7.524-4.271c-8.713,0.023-17.428,0.953-26.134,1.643
		c-20.334,1.612-40.64,4.151-61.001,4.685c-19.852,0.52-39.759-0.923-59.633-1.727c-1.488-0.061-3.955-1.714-4.18-2.953
		c-1.227-6.747-1.964-13.588-2.743-20.412c-2.124-18.649-3.795-37.359-6.424-55.936c-1.522-10.756-4.29-21.368-6.967-31.926
		c-2.847-11.23-1.194-19.159,11.257-23.746c19.957-7.351,38.998-17.385,59.226-23.744c18.414-5.789,37.49-9.19,53.969-20.144
		c4.076-2.708,5.815-3.914,1.345-8.5c-6.043-6.201-9.706-0.697-14.104,1.371c-18.604,8.747-36.917,18.154-55.773,26.31
		c-13.449,5.819-28.113,8.94-41.316,15.202c-22.896,10.859-22.2,8.83-20.401,33.62c1.959,27.011,7.354,53.763,10.946,80.668
		c1.95,14.6,4.82,29.313,4.555,43.925c-0.627,34.512,0.348,68.805,4.88,103.076c2.529,19.132,3.266,38.51,4.532,57.796
		c0.536,8.166,2.565,15.85,11.053,18.082c13.237,3.481,26.753,6.358,40.332,7.967c13.733,1.629,27.683,1.422,41.541,1.993
		c17.839,0.734,35.679,1.493,53.522,2.141c9.585,0.348,13.836-5.886,16.147-13.935c0.29-1.014-1.455-3.737-2.391-3.804
		c-8.593-0.625-17.253-1.494-25.826-1.039C1966.379,546.794,1948.857,547.085,1928.701,548.567z"/>
	<path fill="#010101" d="M1246.288,353.714c3.066-19.941,5.284-40.061,9.424-59.776c4.655-22.169,11.217-43.933,16.608-65.955
		c2.778-11.345,4.826-22.87,7.169-34.32c0.233-1.141,0.777-2.727,0.26-3.436c-6.581-9.014,1.805-7.669,6.037-8.357
		c4.268-0.693,8.806,0.22,13.053-0.536c6.614-1.176,8.272,3.167,9.503,7.768c5.551,20.748,10.87,41.556,16.343,62.324
		c1.549,5.878,3.555,11.641,4.973,17.546c2.181,9.085,4.277,18.205,5.981,27.389c4.844,26.114,9.29,52.302,14.233,78.396
		c4.918,25.966,9.644,51.996,15.661,77.714c2.997,12.806,9.214,24.821,13.061,37.471c8.457,27.8,16.308,55.783,24.463,83.676
		c2,6.842,5.02,13.504,6.024,20.471c0.551,3.822-1.498,8.502-3.671,11.985c-0.809,1.295-5.317,0.239-8.134,0.347
		c-1.478,0.056-3.307,0.947-4.355,0.356c-3.403-1.915-8.421-3.723-9.383-6.686c-2.706-8.341-2.908-17.486-5.552-25.857
		c-3.729-11.809-9.032-23.11-13.17-34.803c-4.931-13.933-9.683-27.948-13.908-42.108c-9.095-30.479-17.865-61.055-26.61-91.636
		c-1.425-4.985-4.321-7.242-9.327-7.005c-15.028,0.711-30.055,1.442-45.076,2.28c-0.49,0.027-1.208,1.254-1.322,1.999
		c-2.979,19.525-5.875,39.062-8.825,58.591c-1.63,10.801-3.995,21.539-4.839,32.396c-1.151,14.828-0.301,29.838-1.867,44.604
		c-2.517,23.745-6.231,47.366-9.593,71.016c-1.566,11.018-3.134,22.065-5.59,32.897c-0.447,1.973-5.051,3.512-7.989,4.271
		c-3.041,0.784-7.865,1.736-9.286,0.195c-2.677-2.902-4.892-7.584-4.778-11.452c0.34-11.487,1.32-23.033,3.177-34.372
		c1.485-9.069,5.738-17.743,6.768-26.817c1.729-15.238,1.24-30.721,2.829-45.983c2.405-23.097,5.871-46.083,8.738-69.135
		c2.528-20.333,4.767-40.703,7.35-61.03c0.449-3.533,0.359-4.979-3.908-4.515c-6.583,0.718-13.262,0.515-19.881,0.984
		c-7.062,0.501-8.374-3.488-7.621-9.219c0.537-4.086,1.588-8.132,1.809-12.227c0.333-6.238,3.931-6.968,8.996-6.344
		c4.453,0.548,8.979,0.51,13.433,1.056C1249.543,369.35,1247.523,360.953,1246.288,353.714z M1231.44,375.684
		c-0.012-0.148-0.025-0.296-0.038-0.446c-1.761,0.085-4.144-0.516-5.155,0.399c-2.131,1.926-3.99,4.479-5.004,7.139
		c-0.341,0.894,2.18,4.14,3.448,4.172c5.885,0.151,12.085,0.581,17.626-1c11.045-3.152,11.936-2.648,10.152,9.022
		c-3.722,24.345-7.807,48.653-10.73,73.097c-3.244,27.122-5.159,54.4-8.02,81.572c-2.857,27.148-6.229,54.243-9.18,81.383
		c-0.271,2.494,0.285,7.015,1.484,7.399c5.595,1.8,7.428-1.818,7.662-6.893c0.437-9.539,0.354-19.169,1.704-28.588
		c2.731-19.065,7.158-37.916,9.259-57.033c2.622-23.849,2.945-47.95,5.473-71.812c2.755-25.993,6.736-51.864,10.723-77.705
		c0.346-2.247,4.587-5.209,7.26-5.483c4.453-0.458,9.127,1.671,13.663,1.504c10.891-0.402,21.745-1.715,32.633-2.235
		c5.542-0.264,12.682-2.663,14.961,5.255c4.914,17.075,9.183,34.334,13.79,51.499c3.581,13.34,6.625,26.87,11.058,39.925
		c8.534,25.135,18.06,49.933,26.807,74.998c3.686,10.561,6.19,21.535,9.851,32.107c0.632,1.825,4.334,2.65,6.73,3.676
		c0.175,0.076,1.998-2.124,1.812-3.002c-3.697-17.458-6.504-35.204-11.672-52.229c-7.486-24.656-16.472-48.869-25.251-73.114
		c-8.58-23.695-12.763-48.271-16.256-73.083c-1.794-12.742-4.97-25.281-7.06-37.987c-3.81-23.164-6.5-46.54-11.156-69.525
		c-3.123-15.418-9.083-30.244-13.307-45.465c-4.432-15.973-8.167-32.139-12.583-48.117c-0.618-2.235-3.761-5.718-5.091-5.448
		c-4.103,0.834-10.549-2.659-11.726,5.255c-0.972,6.532-2.16,13.063-3.786,19.46c-5.954,23.425-12.663,46.673-18.033,70.227
		c-3.557,15.601-5.589,31.575-7.792,47.451c-1.686,12.156-2.173,24.49-4.149,36.588c-0.397,2.425-4.835,5.007-7.897,5.969
		C1239.844,375.815,1235.533,375.403,1231.44,375.684z"/>
	<path fill="#010101" d="M2296.224,392.952c-2.352,0.082-4.707,0.304-7.051,0.212c-3.764-0.148-7.521-0.505-11.281-0.773
		c0.406,4.597,0.191,9.352,1.324,13.762c4.15,16.145,9.49,32.014,13.01,48.284c5.619,25.983,9.627,52.316,15.309,78.284
		c3.732,17.052,9.52,33.646,13.775,50.598c2.377,9.466,3.789,19.208,5.08,28.898c0.822,6.143-4.441,9.787-10.328,7.947
		c-1.312-0.409-2.881-0.142-4.309-0.001c-5.344,0.527-6.576-1.104-6.502-6.994c0.111-8.836-1.982-17.739-3.518-26.548
		c-2.438-13.983-4.732-28.018-7.936-41.834c-3.297-14.223-7.818-28.157-11.432-42.313c-5.572-21.814-10.836-43.709-16.219-65.572
		c-2.283-9.276-4.021-18.734-7.088-27.743c-1.102-3.241-5.045-7.121-8.262-7.738c-9.727-1.867-19.727-2.385-29.637-3.215
		c-5.83-0.488-11.779-0.037-17.52-0.968c-7.398-1.2-8.631,3.026-9.404,8.664c-2.318,16.91-4.381,33.874-7.344,50.675
		c-3.328,18.878-8.283,37.489-11.154,56.424c-3.379,22.291-5.223,44.812-7.842,67.22c-1.344,11.495-8.744,15.708-18.961,10.566
		c-1.756-0.884-3.592-4.012-3.436-5.947c2.576-32.245,4.928-64.523,8.434-96.672c3.443-31.578,8.102-63.024,12.291-94.521
		c0.871-6.55-1.508-8.748-8.219-7.989c-5.564,0.629-11.584,0.734-16.848-0.814c-3.162-0.93-7.111-5.293-7.418-8.435
		c-0.492-5.045,0.219-11.821,3.338-15.055c2.191-2.274,9.234,0.024,14.092,0.476c1.727,0.161,3.398,0.909,5.1,1.378
		c16.256,4.48,19.889,2.858,23.486-13.171c4.58-20.395,8.027-41.041,12.33-61.5c3.182-15.11,7.428-30.006,10.287-45.17
		c1.959-10.385,2.262-21.076,3.471-31.61c1.33-11.61,2.822-23.203,4.357-34.788c0.109-0.82,1.021-1.732,1.799-2.23
		c5.502-3.532,19.26,1.526,21.068,8.056c2.965,10.692,5.455,21.514,8.158,32.277c4.84,19.28,9.977,38.491,14.463,57.853
		c5.504,23.765,10.262,47.703,15.787,71.461c1.67,7.171,4.633,14.077,7.473,20.908c0.52,1.252,3.258,1.979,5.07,2.225
		c8.305,1.126,16.658,1.92,24.967,3.026c1.396,0.185,3.713,1.179,3.822,2.029c0.615,4.758,2.033,10.095,0.479,14.215
		c-1.094,2.9-6.34,4.534-10.014,6.045c-2.049,0.842-2.887,0.065-5.252,0.133C2298.019,392.891,2296.226,393.026,2296.224,392.952z
		 M2295.958,385.138c0.012-0.135,1.93,0.113,1.941-0.023c2.146,0.035,2.484,0.092,4.502-0.403c1.814-0.445,3.375-1.918,5.047-2.938
		c-1.621-0.516-3.207-1.238-4.869-1.512c-9.051-1.497-18.129-2.834-27.17-4.384c-0.906-0.156-2.09-1.24-2.369-2.135
		c-2.762-8.891-5.906-17.713-7.879-26.788c-2.893-13.306-4.26-26.96-7.453-40.182c-5.631-23.306-12.291-46.361-18.248-69.59
		c-4.205-16.395-7.816-32.944-12.131-49.31c-0.461-1.756-3.869-3.827-5.881-3.797c-2.312,0.035-6.221,1.877-6.605,3.575
		c-1.5,6.628-1.758,13.528-2.705,20.294c-2.84,20.301-5.328,40.667-8.85,60.851c-2.5,14.326-6.953,28.304-9.627,42.607
		c-3.227,17.27-5.422,34.729-8.275,52.073c-0.346,2.103-1.512,4.963-3.154,5.805c-6.828,3.501-13.77,6.088-21.816,2.597
		c-4.59-1.99-9.9-2.528-14.957-3.102c-1.627-0.185-3.477,1.604-5.225,2.491c1.34,1.995,2.486,5.512,4.057,5.711
		c5.365,0.682,10.977,0.834,16.316,0.021c9.252-1.41,12.918,0.747,12.553,10.012c-0.531,13.569-0.678,27.328-3.117,40.616
		c-7.02,38.246-13.678,76.484-15.357,115.427c-0.525,12.194-1.52,24.366-2.014,36.561c-0.057,1.378,1.516,3.669,2.756,4.011
		c1.186,0.328,3.957-1.064,4.244-2.167c2.018-7.728,4.066-15.508,5.182-23.401c2.971-21.057,4.994-42.254,8.293-63.255
		c4.137-26.347,9.301-52.532,13.727-78.836c1.26-7.497,2.287-15.213,1.865-22.742c-0.225-4.048,0.105-5.617,3.904-5.339
		c21.652,1.583,43.295,3.265,64.928,5.08c1.27,0.107,3.053,1.429,3.51,2.608c2.326,5.989,4.924,11.982,6.26,18.224
		c3.021,14.13,4.607,28.597,8.135,42.584c7.326,29.053,15.947,57.78,23.242,86.84c5.1,20.313,8.816,40.973,13.344,61.434
		c0.514,2.318,2.17,4.439,3.553,6.476c0.398,0.586,1.695,0.563,2.58,0.82c0.176-0.715,0.619-1.48,0.494-2.136
		c-2.35-12.3-4.453-24.658-7.23-36.862c-5.723-25.152-11.85-50.21-17.738-75.324c-5.184-22.099-10.293-44.217-15.381-66.338
		c-2.938-12.771-6.195-25.492-8.473-38.383c-1.162-6.579,0.922-11.733,9.746-9.791
		C2284.953,384.291,2290.503,384.497,2295.958,385.138z"/>
	<path fill="#010101" d="M2061.601,564.553c-2.118-53.944-4.612-107.877-6.223-161.835c-1.093-36.635-0.015-73.347-1.625-109.949
		c-1.493-33.874-5.309-67.645-7.993-101.47c-0.333-4.19,0.616-8.553-0.167-12.619c-0.733-3.813-3.132-7.278-4.476-11.012
		c-0.649-1.804-0.715-3.87-0.772-5.825c-0.308-10.569,0.13-21.21-0.982-31.688c-0.953-8.977,6.262-11.042,11.066-14.554
		c3.127-2.288,8.312-1.763,12.575-2.498c0.98,6.309,2.731,12.608,2.81,18.928c0.453,35.925-0.319,71.886,1.014,107.772
		c0.775,20.824,5.751,41.469,6.964,62.304c1.428,24.495,0.599,49.114,1.194,73.669c0.343,14.219,1.656,28.412,2.334,42.625
		c0.206,4.307-0.517,8.653-0.357,12.965c0.528,14.081,1.378,28.148,1.888,42.23c0.53,14.647,0.787,29.305,1.206,43.957
		c0.507,17.766,1.173,35.529,1.554,53.298c0.315,14.621,0.228,29.251,0.619,43.87c0.031,1.153,2.363,2.309,3.729,3.323
		c0.386,0.288,3.101,2.333,3.395,2.637c12.958,4.43,20.089,0.284,30.96,0.945c6.152,0.375,12.486-2.914,18.807-4.219
		c2.053-0.424,5.34-0.598,6.256,0.552c1.43,1.795,2.283,5.067,1.707,7.278c-3.994,15.374-6.588,16.96-22.009,16.615
		c-14.316-0.32-28.644-0.119-42.969-0.167c-1.18-0.004-2.403,0.008-3.531-0.279c-7.248-1.849-13.716-3.09-14.218-13.609
		c-1.007-21.064-0.187-36.59-2.263-57.604C2060.955,567.51,2061.614,566.511,2061.601,564.553z M2121.882,633.671
		c4.584-0.755,10.121-1.453,15.521-2.73c1.156-0.274,1.814-2.651,2.701-4.059c-1.086-0.38-2.207-1.17-3.252-1.079
		c-15.953,1.381-31.902,2.813-47.84,4.373c-9.387,0.918-15.03-3.436-14.807-11.737c0.45-16.81,1.337-33.621,1.25-50.428
		c-0.083-15.91-1.306-31.811-1.806-47.723c-1.018-32.322-1.932-64.646-2.795-96.972c-0.632-23.652-1.129-47.309-1.655-70.963
		c-0.345-15.52-0.088-31.076-1.063-46.556c-2.167-34.414-5.588-68.758-7.248-103.192c-1.241-25.714-0.462-51.523-0.811-77.286
		c-0.024-1.81-1.938-3.593-2.973-5.388c-3.549,3.246-10.034,3.752-9.27,10.963c1.275,12.041,2.272,24.115,3.138,36.194
		c1.266,17.666,2.069,35.367,3.521,53.016c1.464,17.769,4.306,35.458,5.029,53.246c0.738,18.153-0.855,36.389-0.528,54.573
		c0.352,19.498,1.777,38.974,2.689,58.461c1.308,27.972,2.922,55.935,3.756,83.92c0.789,26.464,0.188,52.975,1.215,79.425
		c0.934,23.991,3.513,47.913,4.8,71.897c0.486,9.059,5.897,11.129,13.069,11.382C2096.61,633.434,2108.709,633.46,2121.882,633.671z
		"/>
	<path fill="none" d="M1551.984,207.21c2.403,29.02,3.216,55.475,6.465,84.399c2.638,23.497,7.756,46.712,10.491,70.202
		c2.385,20.48,2.71,41.192,4.46,61.757c1.075,12.631,3.676,25.143,4.538,37.779c0.595,8.729-0.2,17.631-1.295,26.339
		c-0.273,2.171-3.964,5.203-6.342,5.461c-2.473,0.269-6.353-1.637-7.742-3.798c-15.411-23.977-32.582-46.553-50.874-68.429
		c-11.606-13.88-21.558-29.209-31.591-44.327c-18.318-27.597-25.705-60.246-40.584-89.473c-5.186-10.186-9.455-20.837-14.501-31.101
		c-0.836-1.7-3.522-2.49-5.353-3.701c-0.782,3.563-2.752,7.341-2.157,10.657c5.166,28.751,11.021,57.378,16.209,86.125
		c3.894,21.57,7.564,43.201,10.506,64.917c3.373,24.889,5.703,49.917,8.726,74.856c3.144,25.931,7.029,51.781,9.672,77.76
		c1.184,11.635,0.201,23.499-0.006,35.256c-0.022,1.272-1.428,2.521-2.191,3.779c-0.911-1.298-2.453-2.514-2.636-3.908
		c-1.84-14.042-2.962-28.196-5.259-42.158c-3.367-20.49-7.719-40.816-11.23-61.284c-0.977-5.694-0.146-11.674-0.699-17.471
		c-2.1-22.026-4.279-44.047-6.714-66.039c-1.897-17.126-3.924-34.25-6.422-51.296c-3.374-23.028-7.896-45.9-10.753-68.986
		c-3.314-26.779-5.429-53.708-7.797-80.597c-0.162-1.839,1.901-3.875,2.93-5.817c1.161,0.802,2.913,1.347,3.397,2.448
		c6.206,14.113,12.202,28.317,18.305,42.476c9.283,21.532,18.27,43.2,28.016,64.52c8.444,18.469,16.545,37.276,27.028,54.583
		c12.111,19.992,22.491,41.273,40.437,57.536c12.246,11.097,22.813,24.116,29.439,39.738c0.731,1.725,2.054,3.738,3.626,4.428
		c2.028,0.892,4.702,1.072,6.846,0.542c0.792-0.196,1.424-3.358,1.185-5.032c-2.018-14.073-4.233-28.117-6.432-42.163
		c-4.422-28.254-9.696-56.406-13.076-84.784c-3.29-27.618-5.147-55.438-6.712-83.22c-1.413-25.017-1.715-50.103-2.199-75.164
		c-0.121-6.25,0.834-12.538,1.586-18.773c0.117-0.972,2.382-2.664,2.66-2.484c2.337,1.514,6.271,3.329,6.328,5.16
		c0.376,12.135-0.094,24.297-0.289,36.451C1551.668,204.438,1552.297,207.142,1551.984,207.21z"/>
	<path fill="none" d="M1557.718,594.005c0.479-30.129,17.76-49.916,39.076-67.744c21.978-18.384,47.532-27.988,75.402-32.217
		c9.262-1.405,18.77-1.313,27.963-3.002c8.015-1.473,10.395-10.408,5.152-16.52c-6.621-7.719-12.923-15.729-19.833-23.176
		c-10.892-11.738-17.807-25.648-23.131-40.476c-3.803-10.595-7.953-21.145-10.629-32.039c-1.921-7.819-1.195-16.25-2.491-24.273
		c-1.518-9.407-3.959-18.663-5.979-27.99c-4.597-21.248-4.807-42.51,5.834-61.867c9.171-16.683,23.921-28.581,41.417-36.107
		c9.971-4.29,20.606-7.438,31.241-9.687c18.724-3.959,30.879-15.661,39.569-31.582c5.824-10.669,11.34-21.613,15.735-32.923
		c3.445-8.868,4.787-18.537,7.469-27.732c0.559-1.918,2.896-3.317,4.415-4.956c1.313,2.235,4.008,4.663,3.729,6.676
		c-3.784,27.308-11.371,53.184-32.315,72.744c-6.829,6.376-15.305,10.957-22.515,16.974c-1.799,1.502-3.115,6.496-2.038,7.958
		c2.667,3.619,6.404,7.58,10.495,8.821c17.227,5.232,26.494,16.634,33.383,33.146c11.42,27.366,3.856,51.054-10.181,73.885
		c-6.039,9.823-13.767,19.318-22.708,26.497c-17.784,14.279-37.515,9.789-56.695,2.023c-5.263-2.13-10.053-5.493-15.388-7.354
		c-2.967-1.035-8.434-1.429-9.556,0.159c-2.165,3.07-3.658,8.254-2.584,11.667c3.38,10.746,9.26,20.777,12.007,31.633
		c4.907,19.392,17.848,33.519,29.066,48.893c3.701,5.072,7.557,10.069,10.808,15.424c10.391,17.114,27.214,26.868,43.333,36.961
		c19.462,12.188,35.253,27.06,44.685,48.276c4.278,9.625,9.286,18.925,13.58,28.543c7.434,16.657,3.355,31.81-6.018,46.543
		c-12.865,20.22-27.059,39.161-46.622,53.485c-20.913,15.313-44.017,23.891-70.119,26.089c-15.997,1.347-31.288-0.264-46.667-3.46
		c-15.99-3.324-28.883-12.635-41.446-22.366c-19.698-15.257-34.023-34.878-42.584-57.985
		C1558.805,616.766,1559.209,605.034,1557.718,594.005z M1807.208,589.533c0.73-0.265,1.459-0.531,2.189-0.797
		c-2.771-6.84-4.245-14.675-8.58-20.311c-9.048-11.764-19.396-22.562-29.61-33.381c-7.733-8.193-14.818-18.513-24.463-23.024
		c-13.923-6.512-29.741-9.547-45.07-12.252c-8.878-1.568-18.555-0.54-27.568,1.045c-11.586,2.037-22.927,5.602-34.26,8.896
		c-7.692,2.235-15.908,3.94-22.643,7.966c-21.047,12.582-34.357,31.919-42.73,54.497c-3.04,8.197-7.128,18.518-4.63,25.768
		c6.605,19.18,16.165,37.402,25.293,55.632c6.655,13.288,16.306,24.186,29.26,32.113c10.503,6.427,20.485,14.471,33.398,14.221
		c10.822-0.208,21.58-3.05,32.413-3.454c22.769-0.848,43.894-6.678,63.56-18.148c16.933-9.877,31.178-22.182,41.708-39.196
		C1805.064,623.613,1806.687,606.862,1807.208,589.533z M1772.671,285.696c-1.523-4.713-1.884-13.124-6.244-17.836
		c-9.725-10.509-20.939-19.864-32.517-28.365c-9.194-6.75-19.906-11.786-31.717-5.416c-4.456,2.405-8.665,5.452-12.521,8.751
		c-10.992,9.404-22.567,18.324-32.375,28.864c-11.241,12.076-12.034,27.689-7.947,42.815c3.792,14.033,5.854,29.607,22.472,36.355
		c7.867,3.194,14.656,10.564,22.59,11.786c24.175,3.726,45.027-6.031,60.982-23.235
		C1768.197,325.607,1769.238,306.252,1772.671,285.696z"/>
	<path fill="none" d="M1927.685,548.642c20.156-1.482,38.693-1.847,58.873-2.918c8.573-0.455,17.233,0.414,25.826,1.039
		c0.936,0.067,2.682,2.79,2.391,3.804c-2.311,8.049-6.562,14.283-16.147,13.935c-17.844-0.648-35.683-1.407-53.523-2.141
		c-13.856-0.571-27.807-0.364-41.54-1.993c-13.578-1.61-27.093-4.487-40.333-7.966c-8.488-2.232-10.517-9.917-11.052-18.083
		c-1.266-19.286-2.003-38.664-4.532-57.796c-4.532-34.27-5.507-68.563-4.88-103.076c0.266-14.613-2.604-29.327-4.555-43.925
		c-3.593-26.905-8.987-53.658-10.946-80.668c-1.798-24.79-2.495-22.76,20.401-33.62c13.204-6.262,27.867-9.382,41.316-15.201
		c18.857-8.157,37.169-17.563,55.773-26.311c4.398-2.067,8.061-7.572,14.104-1.37c4.471,4.586,2.73,5.792-1.345,8.5
		c-16.479,10.952-35.557,14.354-53.969,20.143c-20.228,6.359-39.269,16.394-59.226,23.744
		c-12.452,4.587-14.104,12.517-11.257,23.747c2.677,10.558,5.444,21.168,6.967,31.926c2.628,18.576,4.3,37.287,6.424,55.935
		c0.778,6.824,1.516,13.665,2.743,20.413c0.226,1.238,2.692,2.892,4.18,2.952c19.875,0.803,39.781,2.247,59.633,1.727
		c20.361-0.533,40.667-3.073,61.001-4.685c8.707-0.689,17.421-1.62,26.134-1.643c2.505-0.005,5.016,2.771,7.524,4.271
		c-2.077,1.702-4.037,4.686-6.254,4.895c-13.587,1.282-27.222,2.317-40.861,2.709c-20.73,0.594-41.484,0.375-62.217,0.922
		c-16.675,0.439-33.338,1.431-49.986,2.478c-0.966,0.061-2.635,2.905-2.501,4.312c1.297,13.437,3.26,26.815,4.34,40.265
		c1.249,15.523,1.737,31.106,2.67,46.657c0.698,11.651,1.367,23.312,2.441,34.933c0.87,9.41,2.574,18.745,3.462,28.155
		c1.217,12.866,10.626,15.723,20.853,17.758c8.788,1.749,17.553,3.68,26.408,5.006c6.58,0.984,13.286,1.13,19.934,1.649
		C1926.001,549.424,1927.645,548.335,1927.685,548.642z"/>
	<path fill="none" d="M2121.882,633.671c-13.173-0.211-25.272-0.237-37.356-0.662c-7.173-0.253-12.584-2.323-13.07-11.382
		c-1.288-23.984-3.866-47.906-4.8-71.897c-1.027-26.45-0.427-52.96-1.215-79.425c-0.834-27.986-2.449-55.948-3.757-83.92
		c-0.912-19.488-2.337-38.964-2.688-58.461c-0.328-18.183,1.266-36.42,0.528-54.573c-0.724-17.787-3.565-35.477-5.028-53.246
		c-1.454-17.649-2.255-35.35-3.521-53.016c-0.867-12.079-1.864-24.153-3.14-36.194c-0.764-7.21,5.72-7.717,9.271-10.963
		c1.034,1.795,2.948,3.579,2.973,5.388c0.348,25.763-0.43,51.572,0.811,77.286c1.659,34.434,5.081,68.778,7.247,103.192
		c0.975,15.479,0.718,31.036,1.064,46.556c0.525,23.655,1.023,47.311,1.654,70.963c0.864,32.326,1.779,64.65,2.795,96.972
		c0.5,15.912,1.724,31.812,1.806,47.723c0.087,16.807-0.798,33.618-1.249,50.428c-0.223,8.301,5.42,12.656,14.806,11.737
		c15.938-1.559,31.889-2.991,47.842-4.373c1.045-0.092,2.164,0.698,3.25,1.079c-0.887,1.407-1.545,3.785-2.701,4.059
		C2132.003,632.218,2126.466,632.916,2121.882,633.671z"/>
	<path fill="#010101" d="M1772.671,285.696c-3.433,20.556-4.474,39.911-17.276,53.718c-15.956,17.205-36.808,26.961-60.982,23.235
		c-7.935-1.222-14.724-8.592-22.59-11.786c-16.619-6.746-18.68-22.322-22.473-36.355c-4.087-15.125-3.294-30.739,7.947-42.815
		c9.81-10.541,21.384-19.46,32.376-28.864c3.855-3.299,8.065-6.347,12.521-8.751c11.811-6.37,22.522-1.334,31.717,5.416
		c11.578,8.501,22.791,17.855,32.516,28.365C1770.787,272.571,1771.147,280.983,1772.671,285.696z M1767.07,286.31
		c-1.114-2.976-2.007-8.358-4.836-12.372c-9.915-14.059-23.424-23.815-38.802-31.492c-7.078-3.533-13.721-5.191-20.546-1.325
		c-16.319,9.24-30.636,20.961-41.515,36.433c-1.862,2.649-3.831,5.903-3.968,8.958c-0.421,9.235-1.582,18.915,0.607,27.655
		c2.133,8.519,6.934,17.027,12.638,23.79c4.686,5.555,12.227,8.885,18.863,12.545c4.193,2.312,9.246,5.219,13.573,4.748
		c16.385-1.79,32.021-6.489,44.67-17.87C1762.224,324.361,1763.688,306.268,1767.07,286.31z"/>
	<path fill="#010101" d="M1282.075,250.321c1-10.813-0.314-16.876,1.204-27.617c0.324-2.295,4.079-6.167,5.376-5.84
		c2.848,0.718,6.641,3.206,7.411,5.765c5.918,19.682,11.337,39.518,16.65,59.375c4.428,16.55,8.542,33.183,12.717,49.799
		c2.432,9.679,4.836,19.369,7,29.111c1.248,5.616-4.79,12.186-10.246,11.731c-8.132-0.679-16.295-1.824-24.414-1.607
		c-8.979,0.241-17.97,1.501-26.874,2.858c-8.424,1.285-11.619-1.307-9.978-9.827c4.843-25.136,10.027-50.206,14.954-75.327
		c2.177-11.098,4.057-22.255,6.071-33.383C1281.315,255.276,1282.708,250.404,1282.075,250.321z M1288.384,254.57
		c-3.988,22.306-7.787,44.192-11.851,66.03c-2.347,12.612-5.196,25.131-7.653,37.725c-0.669,3.434-1.583,7.499,4.337,7.181
		c15.573-0.838,31.154-1.568,46.704-2.708c1.252-0.092,3.546-3.279,3.256-4.55c-5.81-25.525-11.706-51.036-18.065-76.429
		c-4.08-16.289-8.907-32.389-13.491-48.55c-0.395-1.392-1.481-2.588-2.246-3.876c-0.703,1.487-2.029,2.988-2,4.46
		C1287.517,240.892,1288.026,247.922,1288.384,254.57z"/>
	<path fill="none" d="M2295.958,385.138c-5.457-0.642-11.006-0.848-16.346-2.022c-8.824-1.942-10.908,3.212-9.746,9.79
		c2.277,12.892,5.533,25.612,8.471,38.384c5.09,22.121,10.199,44.238,15.381,66.337c5.891,25.113,12.018,50.173,17.74,75.324
		c2.779,12.205,4.881,24.563,7.229,36.862c0.127,0.657-0.316,1.421-0.492,2.136c-0.885-0.256-2.182-0.233-2.58-0.82
		c-1.383-2.037-3.039-4.158-3.553-6.476c-4.527-20.461-8.242-41.121-13.344-61.434c-7.295-29.06-15.916-57.788-23.242-86.84
		c-3.527-13.987-5.113-28.454-8.135-42.584c-1.336-6.241-3.934-12.235-6.26-18.224c-0.457-1.178-2.242-2.5-3.51-2.608
		c-21.633-1.815-43.277-3.497-64.928-5.08c-3.799-0.278-4.131,1.291-3.904,5.339c0.42,7.529-0.605,15.245-1.865,22.742
		c-4.426,26.305-9.59,52.489-13.729,78.836c-3.297,21-5.32,42.198-8.291,63.254c-1.115,7.894-3.164,15.674-5.182,23.402
		c-0.287,1.103-3.061,2.494-4.244,2.167c-1.24-0.342-2.812-2.633-2.756-4.011c0.492-12.194,1.488-24.367,2.014-36.561
		c1.68-38.942,8.336-77.181,15.357-115.427c2.438-13.288,2.586-27.045,3.117-40.615c0.363-9.264-3.301-11.42-12.553-10.011
		c-5.34,0.814-10.951,0.662-16.318-0.021c-1.568-0.2-2.715-3.716-4.057-5.712c1.75-0.886,3.6-2.674,5.225-2.491
		c5.057,0.574,10.369,1.112,14.959,3.102c8.047,3.492,14.988,0.904,21.814-2.597c1.643-0.842,2.811-3.702,3.156-5.806
		c2.854-17.342,5.047-34.803,8.275-52.072c2.674-14.304,7.127-28.281,9.627-42.607c3.521-20.185,6.01-40.55,8.85-60.852
		c0.947-6.766,1.205-13.665,2.705-20.293c0.385-1.698,4.291-3.541,6.605-3.575c2.012-0.029,5.42,2.041,5.881,3.797
		c4.316,16.365,7.926,32.915,12.131,49.31c5.957,23.23,12.619,46.284,18.248,69.59c3.193,13.221,4.561,26.876,7.453,40.182
		c1.973,9.074,5.117,17.897,7.879,26.788c0.279,0.895,1.463,1.979,2.369,2.135c9.041,1.55,18.119,2.887,27.17,4.384
		c1.662,0.274,3.248,0.997,4.867,1.513c-1.672,1.02-3.232,2.493-5.045,2.938c-2.018,0.495-4.266,0.052-6.412,0.018
		C2295.98,384.866,2295.97,385.002,2295.958,385.138z M2186.207,370.677c2.691,1.703,5.023,4.404,7.51,4.554
		c18.768,1.137,37.82,0.144,55.533,8.227c7.779,3.55,11.805-2.212,13.324-7.242c1.57-5.194,0.391-11.59-0.84-17.185
		c-4.139-18.849-8.764-37.594-13.344-56.342c-3.557-14.568-7.52-29.039-10.953-43.636c-3.469-14.761-6.416-29.645-9.834-44.419
		c-0.512-2.214-2.332-4.125-3.549-6.175c-1.586,2.517-3.916,4.858-4.562,7.595c-0.732,3.118,0.617,6.688,0.064,9.89
		c-3.217,18.611-6.615,37.193-10.166,55.745c-3.281,17.144-6.232,34.389-10.467,51.303
		C2195.876,345.152,2190.955,356.841,2186.207,370.677z"/>
	<path fill="#010101" d="M2189.396,370.246c4.748-13.834,6.48-25.093,9.525-37.252c4.236-16.914,7.186-34.158,10.469-51.303
		c3.551-18.551,6.949-37.133,10.164-55.745c0.553-3.202-0.795-6.772-0.062-9.89c0.645-2.738,2.975-5.079,4.562-7.596
		c1.215,2.05,3.037,3.961,3.549,6.174c3.416,14.775,6.365,29.658,9.834,44.419c3.432,14.597,7.395,29.068,10.953,43.636
		c4.58,18.749,9.203,37.494,13.344,56.342c1.229,5.596,2.408,11.992,0.84,17.185c-1.52,5.029-5.545,10.791-13.324,7.242
		c-17.713-8.083-36.766-7.091-55.533-8.227C2191.23,375.081,2189.681,373.268,2189.396,370.246z M2195.412,364.483
		c1.371,1.278,2.762,3.629,3.969,3.538c18.256-1.373,35.879,1.294,53.082,7.395c0.781,0.277,2.996-0.926,3.031-1.527
		c0.207-3.489,0.357-7.07-0.207-10.501c-1.902-11.583-3.705-23.211-6.318-34.645c-2.938-12.855-6.68-25.527-10.133-38.262
		c-4.1-15.106-8.25-30.198-12.455-45.274c-0.211-0.756-1.156-1.308-1.76-1.955c-0.389,0.671-0.992,1.299-1.135,2.019
		c-3.971,20.042-7.787,40.116-11.873,60.134c-2.109,10.335-4.367,20.66-7.135,30.833
		C2201.99,345.38,2198.714,354.308,2195.412,364.483z"/>
	<path fill="#010101" d="M1551.192,592.095c-2.493-29.567,12.54-48.128,33.283-66.291c19.108-16.729,39.493-31.377,65.389-36.049
		c6.078-1.098,11.867-3.999,17.957-4.784c8.805-1.132,17.768-1.003,26.639-1.717c0.732-0.059,2.173-3.064,1.766-3.657
		c-3.282-4.772-6.646-9.55-10.517-13.845c-13.589-15.079-24.269-31.796-30.199-51.357c-3.927-12.95-8.251-25.789-11.765-38.849
		c-1.24-4.61,0.018-9.852-0.94-14.587c-3.01-14.866-8.023-29.483-9.469-44.466c-1.732-17.951-0.875-35.517,9.302-52.524
		c17.221-28.782,42.267-43.868,74.003-50.756c17.507-3.801,32.743-11.494,40.501-29.47c4.854-11.249,11.505-21.779,15.72-33.231
		c3.559-9.673,4.244-20.374,7.33-30.267c0.972-3.115,5.601-7.17,8.554-7.167c6.803,0.005,14.123,2.494,11.974,11.762
		c-4.322,18.646-6.858,37.787-17.166,54.739c-9.764,16.058-20.78,30.75-35.918,42.129c-0.524,0.393,0.04,3.736,0.951,4.284
		c4.513,2.713,9.304,4.968,14.014,7.348c18.192,9.196,24.435,26.387,27.858,44.395c5.019,26.402-4.287,50.425-18.062,71.923
		c-11.678,18.225-27.699,34.674-51.276,34.057c-14.768-0.387-29.366-7.271-44.043-11.235c-1.807-0.487-3.624-0.941-5.438-1.411
		c0.18,1.676-0.009,3.498,0.59,5.007c9.983,25.107,17.921,51.207,37.31,71.539c5.476,5.742,8.551,13.751,13.944,19.598
		c7.638,8.281,15.938,16.117,24.799,23.067c12.562,9.851,27.307,17.277,38.587,28.324c20.791,20.361,33.135,46.368,40.169,74.359
		c3.281,13.054-1.258,26.076-8.771,37.228c-8.896,13.21-17.373,27.041-28.262,38.477c-11.095,11.652-24.468,21.323-37.619,30.784
		c-21.093,15.174-45.967,18.987-70.991,19.129c-29.984,0.171-57.211-8.626-80.677-28.757
		c-18.894-16.208-34.488-34.634-43.355-57.752c-4.47-11.657-4.806-20.84-7.424-33.208
		C1550.67,598.779,1550.462,592.177,1551.192,592.095z M1557.718,594.005c1.491,11.029,1.087,22.761,4.861,32.945
		c8.562,23.107,22.888,42.729,42.584,57.985c12.563,9.73,25.456,19.042,41.446,22.366c15.378,3.196,30.67,4.807,46.667,3.46
		c26.102-2.198,49.207-10.775,70.12-26.089c19.562-14.325,33.756-33.266,46.621-53.486c9.373-14.733,13.452-29.886,6.017-46.543
		c-4.293-9.618-9.301-18.919-13.579-28.543c-9.432-21.216-25.223-36.088-44.685-48.276c-16.119-10.093-32.943-19.847-43.333-36.961
		c-3.25-5.355-7.107-10.352-10.808-15.424c-11.218-15.372-24.16-29.5-29.066-48.893c-2.748-10.856-8.626-20.888-12.007-31.633
		c-1.074-3.412,0.42-8.596,2.584-11.667c1.122-1.588,6.588-1.194,9.556-0.159c5.335,1.861,10.125,5.225,15.388,7.354
		c19.18,7.765,38.911,12.255,56.695-2.023c8.941-7.179,16.669-16.674,22.708-26.498c14.038-22.831,21.602-46.519,10.181-73.885
		c-6.89-16.511-16.156-27.914-33.382-33.145c-4.092-1.242-7.829-5.203-10.496-8.822c-1.077-1.462,0.239-6.457,2.038-7.958
		c7.21-6.017,15.686-10.597,22.515-16.974c20.945-19.561,28.531-45.436,32.315-72.743c0.279-2.014-2.416-4.441-3.729-6.676
		c-1.519,1.639-3.856,3.037-4.415,4.956c-2.682,9.195-4.024,18.863-7.469,27.732c-4.395,11.31-9.91,22.254-15.735,32.923
		c-8.69,15.921-20.844,27.622-39.569,31.582c-10.635,2.249-21.271,5.398-31.241,9.687c-17.496,7.527-32.247,19.425-41.417,36.107
		c-10.641,19.357-10.431,40.618-5.834,61.867c2.019,9.327,4.46,18.583,5.98,27.991c1.295,8.022,0.57,16.454,2.49,24.273
		c2.675,10.894,6.825,21.444,10.629,32.039c5.325,14.828,12.239,28.737,23.131,40.476c6.911,7.447,13.213,15.457,19.833,23.175
		c5.244,6.113,2.865,15.047-5.151,16.521c-9.193,1.689-18.701,1.598-27.963,3.001c-27.87,4.229-53.424,13.833-75.403,32.217
		C1575.478,544.089,1558.197,563.876,1557.718,594.005z"/>
	<path fill="none" d="M1685.346,504.095c18.507,4.023,37.507,6.609,55.31,12.696c8.451,2.89,14.955,12.129,21.74,19.081
		c10.502,10.764,20.232,22.283,30.768,33.013c9.458,9.632,6.48,20.917,5.727,32.167c-2.375,35.423-24.791,56.302-53.285,71.937
		c-15.892,8.718-33.372,13.668-51.939,13.664c-4.836-0.001-9.868,0.916-14.472,2.429c-19.916,6.545-35.861-2.221-51.498-12.675
		c-19.938-13.329-29.055-34.466-39.224-54.734c-4.135-8.246-8.941-16.875-10.056-25.757c-1.936-15.433,3.78-29.607,13.102-42.085
		c5.366-7.185,10.507-14.6,16.473-21.262c9.685-10.815,23.279-13.634,36.696-16.847c10.817-2.591,21.416-6.092,32.152-9.047
		c2.622-0.722,3.314-1.221,6.02-1.643C1682.992,504.608,1685.211,504.519,1685.346,504.095z"/>
	<path fill="none" d="M1767.07,286.31c-3.382,19.958-4.845,38.05-19.316,51.069c-12.65,11.381-28.285,16.081-44.671,17.87
		c-4.328,0.472-9.38-2.435-13.573-4.748c-6.637-3.661-14.177-6.991-18.863-12.545c-5.703-6.763-10.503-15.271-12.637-23.79
		c-2.189-8.739-1.029-18.418-0.608-27.655c0.138-3.055,2.106-6.309,3.968-8.957c10.879-15.473,25.196-27.194,41.515-36.434
		c6.826-3.865,13.469-2.208,20.547,1.326c15.378,7.676,28.887,17.433,38.801,31.493
		C1765.063,277.953,1765.956,283.334,1767.07,286.31z"/>
	<path fill="none" d="M1231.44,375.684c4.092-0.283,8.404,0.13,12.21-1.066c3.062-0.962,7.5-3.544,7.897-5.969
		c1.977-12.098,2.463-24.431,4.15-36.588c2.203-15.877,4.235-31.851,7.792-47.451c5.371-23.555,12.079-46.802,18.033-70.228
		c1.626-6.397,2.814-12.928,3.786-19.459c1.176-7.914,7.623-4.422,11.726-5.255c1.329-0.27,4.472,3.213,5.09,5.448
		c4.417,15.978,8.152,32.145,12.583,48.117c4.224,15.221,10.185,30.047,13.308,45.465c4.654,22.985,7.346,46.361,11.155,69.524
		c2.09,12.707,5.266,25.247,7.06,37.987c3.493,24.812,7.675,49.388,16.256,73.083c8.78,24.245,17.766,48.458,25.251,73.114
		c5.169,17.025,7.976,34.77,11.673,52.229c0.186,0.878-1.638,3.078-1.813,3.002c-2.396-1.026-6.098-1.851-6.73-3.676
		c-3.661-10.573-6.166-21.546-9.852-32.109c-8.746-25.064-18.273-49.861-26.807-74.997c-4.433-13.055-7.477-26.585-11.058-39.925
		c-4.607-17.165-8.876-34.424-13.79-51.499c-2.279-7.918-9.42-5.519-14.96-5.255c-10.889,0.521-21.743,1.834-32.634,2.235
		c-4.536,0.167-9.211-1.962-13.663-1.505c-2.674,0.274-6.914,3.237-7.26,5.483c-3.987,25.84-7.968,51.711-10.723,77.705
		c-2.528,23.862-2.852,47.963-5.474,71.812c-2.102,19.118-6.527,37.969-9.26,57.033c-1.349,9.419-1.266,19.048-1.703,28.588
		c-0.233,5.075-2.067,8.692-7.662,6.894c-1.199-0.386-1.755-4.906-1.484-7.4c2.95-27.14,6.322-54.234,9.179-81.383
		c2.861-27.171,4.776-54.45,8.02-81.572c2.922-24.444,7.008-48.752,10.73-73.097c1.784-11.67,0.894-12.175-10.152-9.022
		c-5.542,1.581-11.741,1.151-17.625,1c-1.269-0.033-3.79-3.279-3.449-4.173c1.014-2.659,2.872-5.211,5.003-7.138
		c1.012-0.914,3.394-0.313,5.155-0.398C1231.415,375.388,1231.428,375.536,1231.44,375.684z M1280.05,255.111
		c0.632,0.083,1.265,0.165,1.897,0.248c-2.014,11.129-3.894,22.286-6.071,33.384c-4.927,25.12-10.11,50.19-14.954,75.326
		c-1.642,8.521,1.553,11.112,9.978,9.827c8.903-1.357,17.894-2.617,26.874-2.858c8.119-0.217,16.281,0.929,24.414,1.607
		c5.457,0.455,11.494-6.116,10.246-11.731c-2.164-9.742-4.568-19.431-7-29.11c-4.174-16.616-8.291-33.249-12.717-49.799
		c-5.313-19.858-10.73-39.694-16.65-59.376c-0.77-2.559-4.563-5.046-7.411-5.765c-1.298-0.328-5.052,3.544-5.376,5.839
		C1281.761,233.444,1281.05,244.298,1280.05,255.111z"/>
	<path fill="none" d="M1288.384,254.57c-0.358-6.648-0.867-13.679-1.009-20.717c-0.029-1.472,1.297-2.973,2-4.46
		c0.764,1.288,1.851,2.484,2.246,3.876c4.584,16.16,9.411,32.261,13.491,48.551c6.36,25.392,12.255,50.903,18.065,76.428
		c0.29,1.271-2.003,4.457-3.256,4.55c-15.551,1.14-31.132,1.87-46.704,2.708c-5.918,0.318-5.007-3.746-4.337-7.181
		c2.457-12.593,5.306-25.112,7.653-37.724C1280.597,298.762,1284.396,276.875,1288.384,254.57z"/>
	<path fill="none" d="M2195.412,364.483c3.303-10.175,6.578-19.103,9.068-28.247c2.766-10.172,5.025-20.498,7.133-30.833
		c4.086-20.019,7.902-40.091,11.873-60.134c0.143-0.72,0.748-1.35,1.137-2.021c0.604,0.647,1.547,1.199,1.76,1.956
		c4.203,15.077,8.354,30.168,12.453,45.274c3.455,12.735,7.197,25.407,10.135,38.262c2.613,11.435,4.414,23.062,6.316,34.646
		c0.564,3.43,0.414,7.011,0.209,10.5c-0.035,0.602-2.25,1.805-3.033,1.527c-17.201-6.101-34.826-8.767-53.082-7.395
		C2198.173,368.112,2196.783,365.761,2195.412,364.483z"/>
</g>
<g>
	<path fill="#010101" d="M832.78,228.057c0.433-14.635,9.902-24.844,22.799-24.579c9.967,0.207,25.37,15.769,25.188,25.449
		c-0.205,10.938-13.878,31.805-20.815,31.77C847.643,260.636,832.36,242.276,832.78,228.057z"/>
	<path fill="#010101" d="M747.396,211.553c0.734-14.051,8.129-21.931,20.388-21.722c11.087,0.191,24.548,16.755,22.729,29.584
		c-1.499,10.582-2.467,23.429-16.475,25.146C762.766,245.941,746.705,224.818,747.396,211.553z"/>
	<path fill="#010101" d="M1178.903,422.057c-23.386-16.197-47.193-31.6-75.016-39.46c-2.271-0.642-4.885-3.375-5.566-5.665
		c-1.639-5.509-1.521-11.573-3.375-16.98c-4.303-12.557-6.132-28.128-14.744-36.604c-20.042-19.726-56.322-20.878-77.938,0.571
		c-14.116,14.005-26.954,29.404-39.412,44.94c-13.308,16.595-25.239,34.286-38.292,51.095c-6.144,7.915-12.653,7.888-18.744,0.188
		c-7.247-9.166-14.538-18.503-20.208-28.662c-10.486-18.79-20.151-38.065-29.5-57.457c-7.579-15.718-27.622-24.338-39.629-14.864
		c-10.008,7.896-20.982,16.654-26.614,27.566c-10.943,21.204-18.377,44.213-27.381,66.426c-4.678,11.538-7.464,23.877-22.19,28.54
		c-15.279,4.838-39.544-1.801-47.604-14.773c-13.97-22.483-11.189-45.037,0.944-66.679c6.105-10.893,7.417-21.882,5.102-33.111
		c-1.005-4.87-6.458-11.693-10.655-12.292c-4.973-0.71-12.278,3.06-15.796,7.229c-3.692,4.377-4.053,11.542-5.966,17.457
		c-0.578,1.786-1.475,3.468-2.226,5.198c-1.078-1.451-2.352-2.793-3.205-4.365c-16.601-30.625-58.753-22.364-74.374-3.827
		c-13.963,16.57-25.877,35.771-28.094,59.217c-1.63,17.234-5.11,34.139,6.536,49.361c5.945,7.77-0.897,8.901-5.587,9.371
		c-7.051,0.708-14.297,0.413-21.364-0.35c-3.651-0.393-8.811-1.713-10.334-4.334c-6.664-11.462-12.773-23.321-18.107-35.466
		c-9.946-22.655-18.708-45.838-28.949-68.354c-6.35-13.958-31.634-22.485-46.126-17.646c-19.903,6.642-32.972,19.488-38.708,39.745
		c-0.29,1.025-1.451,1.803-2.209,2.697c-0.368-1.007-0.796-1.995-1.092-3.021c-2.925-10.149-5.127-20.576-8.932-30.381
		c-3.973-10.24-22.649-18.721-30.277-13.132c-15.199,11.135-28.906,23.488-31.668,44.547c-1.645,12.536-7.4,24.536-11.322,36.772
		c-0.365,1.14-0.937,2.22-1.233,3.374c-4.914,19.202-17.337,24.921-34.149,15.707c-0.868-0.474-1.771-0.887-2.681-1.276
		c-15.961-6.809-21.453-27.552-12.932-42.435c6.651-11.618,13.249-24.249,15.453-37.185c2.769-16.254,2.517-33.74-5.833-48.939
		c-3.082-5.61-9.583-11.431-15.493-12.723c-4.571-1-11.706,3.849-15.855,7.959c-10.152,10.064-10.592,24.065-13.963,37.201
		c-6.452,25.148-8.538,49.974-1.313,74.884c1.967,6.78-0.382,10.382-4.171,14.135c-3.993,3.953-8.64,7.242-12.977,10.849
		c-9.327,7.757-18.944,13.449-31.173,5.595c-1.432-0.92-3.898-0.07-5.709-0.618c-1.672-0.503-3.848-1.462-4.433-2.812
		c-0.542-1.254,0.288-3.616,1.266-4.933c9.807-13.211,19.492-26.531,29.754-39.386c14.682-18.387,20.829-39.822,24.233-62.559
		c2.545-17.003-4.342-23.126-20.298-24.579c-27.477-2.503-62.176,21.518-70.465,47.869c-4.032,12.819-8.688,25.581-11.135,38.728
		c-3.294,17.688-6.613,35.631,4.289,52.737c3.117,4.892,4.714,12.829,3.076,18.159c-2.184,7.099-7.681,13.465-12.685,19.358
		c-10.325,12.157-20.773,24.209-31.295,36.198c2.974,1.252,5.957,2.552,8.989,3.903c3.546,1.548,8.151,0.324,12.127,0.354
		c-0.166-2.938-0.015-6.272,1.453-8.279c9.931-13.58,20.349-26.811,30.846-39.965c1.088-1.361,4.306-2.562,5.655-1.938
		c19.118,8.838,35.725,0.976,50.996-8.907c12.682-8.206,23.583-19.134,35.609-28.418c1.414-1.091,6.177-0.337,7.341,1.156
		c7.219,9.254,13.572,19.182,20.754,28.467c9.841,12.726,30.526,19.636,44.23,11.815c8.781-5.013,17.019-14.762,20.633-24.244
		c7.16-18.79,11.233-38.797,15.979-58.446c1.645-6.807,1.767-14.029,2.124-21.086c0.726-14.254,11.673-21.087,21.18-28.449
		c5.35-4.142,11.273-0.604,12.767,5.298c3.432,13.547,6.555,27.292,8.172,41.148c2.492,21.362,3.213,42.933,5.752,64.29
		c0.393,3.306,6.141,7.793,9.989,8.477c7.146,1.267,5.959-4.754,5.813-9.567c-0.869-28.636-0.079-57.327,11.553-83.962
		c6.561-15.019,17.883-26.859,36.639-21.915c6.2,1.635,12.106,9.89,15.292,16.495c13.349,27.663,13.502,58.75,21.422,87.794
		c6.626,24.298,31.503,48.592,59.344,46.908c12.633-0.765,26.219-5.948,36.898-12.918c9.662-6.308,18.408-10.375,29.896-10.435
		c22.664-0.119,35.722-15.086,46.961-32.281c1.032-1.582,1.898-3.272,2.841-4.913c1.016,1.571,2.289,3.034,3.006,4.729
		c8.178,19.272,19.747,35.703,40.766,41.87c7.303,2.142,16.061,1.415,23.714-0.156c16.67-3.421,27.865-13.213,37.394-28.296
		c12.819-20.289,14.89-42.84,20.801-64.691c5.675-20.985,14.653-39.896,33.166-52.995c5.963-4.22,9.155,0.457,11.213,3.64
		c4.884,7.546,9.369,15.566,12.573,23.946c10.399,27.189,19.777,54.772,30.316,81.903c4.88,12.561,23.858,20.731,39.293,19.369
		c17.336-1.53,27.975-10.952,34.694-26.374c6.236-14.31,15.148-27.769,19.29-42.607c6.813-24.406,24.871-40.032,40.749-57.152
		c10.899-11.753,26.807-15.888,42.692-12.658c5.522,1.122,12.92,7.518,14.071,12.704c2.653,11.941,2.847,24.673,2.049,36.955
		c-0.181,2.795-8.174,6.469-13,7.333c-18.958,3.394-37.01,7.46-52.649,20.466c-14.444,12.009-7.276,36.236,5.15,45.133
		c23.259,16.655,44.308,6.619,65.621-3.035c17.983-8.144,27.586-22.273,28.582-42.312c0.059-1.167,6.562-3.791,8.686-2.795
		c14.624,6.857,29.278,13.828,43.133,22.083c8.122,4.838,16.179,9.965,23.837,15.565c3.582-1.817,7.28-3.498,10.806-5.467
		C1184.834,426.257,1181.891,424.125,1178.903,422.057z M155.577,414.384c-3.318,3.908-5.703,2.329-6.314-1.436
		c-3.908-24.056-13.138-48.324-2.598-72.39c3.501-7.989,11.465-14.847,18.897-20.078c8.699-6.12,19.047-9.896,28.679-14.689
		c8.854,2.275,11.789,6.212,10.524,13.636c-4.407,25.865-13.252,50.026-28.773,71.311
		C169.877,399.122,162.318,406.442,155.577,414.384z M251.235,365.758c-0.315,1.056-1.326,1.902-2.014,2.846
		c-0.385-0.517-4.78-4.349-5.119-4.842c-8.391-12.23-8.77-21.594-6.743-35.729c3.097-9.072,5.448-18.462,9.491-27.056
		c3.64-7.739,9.374-6.655,11.216,1.146c2.206,9.337,4.14,19.395,2.936,28.719C259.47,342.706,254.702,354.156,251.235,365.758z
		 M575.4,436.691c-10.039-23.606-6.272-46.531,6.204-68.065c5.797-10.007,12.133-20.334,20.495-28.059
		c9.973-9.217,23.448-10.635,36.839-7.607c7.828,1.769,13.135,13.374,13.109,27.53c0,18.686-7.003,34.419-21.198,46.467
		c-14.309,12.144-29.294,23.486-43.86,35.33C579,448.784,576.94,440.312,575.4,436.691z M619.784,454.494
		c-3.173,1.283-6.958,1.054-10.46,1.528c1.957-2.418,4.122-4.699,5.821-7.285c2.752-4.188,4.864-8.83,7.852-12.826
		c5.546-7.42,11.656-14.418,17.302-21.767c8.409-10.945,16.621-22.042,23.191-30.781C654.22,407.765,653.49,440.87,619.784,454.494z
		 M1059.768,393.789c-10.876,11.128-10.239,19.258-24.273,29.763c-3.505,3.015-17.674,8.862-19.345,7.654
		c-4.172-3.022-6.662-8.368-8.721-11.238c0.159-8.341,12.629-19.801,20.862-21.669c9.901-2.247,19.763-4.671,29.643-7.018
		c1.058-0.252,2.118-0.499,3.179-0.748C1060.679,391.63,1060.53,393.008,1059.768,393.789z"/>
</g>
<path fill="#010101" d="M3248.682,409.912c-1.384-2.768-3.46-4.844-8.305-4.152c0.745-1.49,0.282-2.781-0.624-4.195
	c-14.182,8.475-28.91,16.377-44.236,22.359c-22.617,8.826-46.752,12.06-70.61,6.302c-23.097-5.574-45.988-12.577-68.203-20.984
	c-10.534-3.987-19.386-12.562-28.671-19.501c-1.005-0.751-0.625-4.988,0.498-6.692c7.789-11.812,17.281-22.708,23.586-35.228
	c5.571-11.063,11.249-23.772,3.223-36.385c-1.783-2.8-6.709-5.538-9.857-5.204c-15.828,1.68-28.691,8.352-35.041,24.239
	c-3.14,7.856-7.725,15.271-9.852,23.36c-2.346,8.925-3.366,18.378-3.551,27.63c-0.128,6.488-1.584,9.86-7.958,12.634
	c-38.71,16.848-79.029,22.551-120.774,18.082c-11.837-1.267-23.652-7.186-35.113-6.297c-12.719,0.987-21.04-5.114-30.268-10.691
	c-11.562-6.99-10.764-11.155-1.485-21.243c8.171-8.883,14.686-19.52,20.678-30.092c3.879-6.842,6.229-14.817,7.76-22.581
	c0.581-2.946-2.351-8.915-4.896-9.736c-9.75-3.144-20.003-6.548-30.049-6.491c-12.925,0.072-17.171,12.059-22.159,21.815
	c-7.793,15.238-5.833,31.136-3.101,47.119c0.299,1.746-0.384,4.845-1.586,5.482c-14.758,7.835-29.202,16.629-44.73,22.541
	c-15.267,5.812-31.602,8.981-47.624,12.607c-11.318,2.561-22.93,3.796-34.359,5.89c-22.723,4.163-43.649-1.326-63.558-11.817
	c-13.404-7.063-27.926-12.939-39.488-22.362c-20.309-16.548-34.121-39.07-40.495-64.114c-2.916-11.461,2.555-25.368,5.372-37.905
	c4.01-17.832,7.484-36.048,14.102-52.959c8.148-20.819,5.626-42.192,7.196-63.352c0.231-3.097-3.042-8.153-5.983-9.509
	c-16.58-7.647-33.998-1.144-43.878,15.766c-9.569,16.376-12.927,34.298-13.087,53.071c-0.112,13.041-2.433,26.283-0.818,39.062
	c2.192,17.347,6.335,34.592,11.271,51.403c4.114,14.014,0.093,26.151-7.944,35.889c-14.093,17.076-29.368,33.423-45.782,48.269
	c-16.272,14.718-45.118,20.893-66.473,3.911c0,5.242,0,10.483,0,15.725c0.755,0.558,1.518,1.105,2.288,1.639
	c19.854,13.749,55.125,5.908,74.115-11.7c18.081-16.767,34.406-35.461,51.06-53.713c3.396-3.722,3.603-3.535,5.775,0.636
	c6.613,12.705,12.551,26.028,20.989,37.46c19.788,26.802,41.055,52.226,76.089,60.307c24.711,5.699,49.837,8.48,74.067,1.147
	c23.004-6.961,45.321-16.796,67.007-27.299c16.427-7.957,31.151-19.366,47.153-28.309c4.171-2.331,11.889-10.352,14.862,2.376
	c0.212,0.909,1.655,1.494,2.446,2.308c10.865,11.178,23.232,20.104,37.204,27.225c17.134,8.731,34.675,16.448,54.109,13.633
	c18.458-2.675,36.735-7.188,54.766-12.095c27.625-7.519,54.941-16.05,78.562-33.334c1.973-1.442,7.082-0.925,9.269,0.677
	c7.853,5.758,14.379,13.565,22.68,18.424c18.694,10.941,38.025,20.827,57.324,30.696c29.562,15.116,58.961,6.556,87.041-3.671
	c17.441-6.353,33.315-17.49,49.133-27.659c3.808-2.447,7.5-5.083,11.127-7.823C3248.908,411.614,3248.886,410.732,3248.682,409.912z
	 M2487.908,281.681c-0.805-1.446-2.121-2.821-2.335-4.35c-2.414-17.367-4.659-34.756-6.909-51.838
	c0.896-10.187,0.947-20.098,2.82-29.651c2.176-11.088,8.47-20.273,18.92-25.227c4.749-2.251,10.798-2.028,9.55,6.198
	c-2.907,19.174-5.816,38.363-9.443,57.408c-2.738,14.374-6.544,28.546-10.014,42.774
	C2490.089,278.668,2488.792,280.124,2487.908,281.681z M2782.114,358.445c-0.176-1.365-0.255-2.742-0.573-6.256
	c0.443-0.744,0.104-3.209,1.365-5.51c0.502-0.919,1.354-6.014,1.463-6.788c1.194-8.481,2.959-11.672,6.562-18.668
	c3.045-5.915,16.967-8.532,21.957-2.946c2.643,2.957,2.062,11.466-0.282,15.675c-5.725,10.28-12.806,19.943-20.319,29.046
	C2785.242,371.533,2783.031,365.553,2782.114,358.445z M3018.525,372.696c-0.747,1.089-1.598,2.107-2.399,3.158
	c-0.812-1.253-2.002-2.405-2.379-3.778c-5.141-18.699,8.025-46.349,26.053-54.229c1.683-0.735,7.465-0.842,10.085,2.122
	c4.07,3.871-14.417,26.138-21.014,37.445C3025.779,362.715,3022.011,367.626,3018.525,372.696z"/>
</svg>
